<svg width="86" height="86" viewBox="0 0 86 86" fill="none" xmlns="http://www.w3.org/2000/svg">
<g filter="url(#filter0_b_121_2350)">
<path d="M0 10C0 4.47715 4.47715 0 10 0H76C81.5228 0 86 4.47715 86 10V76C86 81.5229 81.5228 86 76 86H10C4.47715 86 0 81.5229 0 76V10Z" fill="url(#paint0_linear_121_2350)" fill-opacity="0.3"/>
<path d="M0.5 10C0.5 4.75329 4.75329 0.5 10 0.5H76C81.2467 0.5 85.5 4.75329 85.5 10V76C85.5 81.2467 81.2467 85.5 76 85.5H10C4.75329 85.5 0.5 81.2467 0.5 76V10Z" stroke="url(#paint1_linear_121_2350)"/>
</g>
<path fill-rule="evenodd" clip-rule="evenodd" d="M45.9624 32.0127C47.0157 32.0126 48.0588 32.22 49.032 32.6231C50.0052 33.0262 50.8895 33.6171 51.6343 34.362C52.3791 35.1069 52.9698 35.9913 53.3728 36.9645C53.7758 37.9378 53.983 38.9809 53.9828 40.0343C53.9828 40.3062 54.0908 40.567 54.2831 40.7593C54.4753 40.9516 54.7361 41.0596 55.008 41.0596C55.2799 41.0596 55.5407 40.9516 55.733 40.7593C55.9253 40.567 56.0333 40.3062 56.0333 40.0343C56.0322 37.3637 54.9709 34.8028 53.0824 32.9144C51.1939 31.0261 48.633 29.9648 45.9624 29.9639C45.6907 29.9639 45.4302 30.0719 45.2381 30.264C45.046 30.456 44.9381 30.7166 44.9381 30.9882C44.9381 31.2599 45.046 31.5204 45.2381 31.7125C45.4302 31.9046 45.6907 32.0125 45.9624 32.0125V32.0127ZM44.4147 38.5715C44.2794 38.5727 44.1452 38.5471 44.0199 38.4961C43.8945 38.4452 43.7805 38.37 43.6844 38.2747C43.5884 38.1795 43.5121 38.0662 43.46 37.9413C43.408 37.8164 43.3812 37.6824 43.3812 37.5472C43.3812 37.4119 43.408 37.2779 43.46 37.153C43.5121 37.0282 43.5884 36.9148 43.6844 36.8196C43.7805 36.7244 43.8945 36.6491 44.0199 36.5982C44.1452 36.5472 44.2794 36.5216 44.4147 36.5228C45.1057 36.5225 45.79 36.6583 46.4285 36.9226C47.067 37.1869 47.6472 37.5744 48.1359 38.063C48.6245 38.5516 49.0121 39.1317 49.2765 39.7701C49.5409 40.4086 49.6768 41.0929 49.6766 41.7839C49.6766 42.0558 49.5686 42.3166 49.3763 42.5089C49.184 42.7011 48.9232 42.8092 48.6513 42.8092C48.3794 42.8092 48.1186 42.7011 47.9264 42.5089C47.7341 42.3166 47.6261 42.0558 47.6261 41.7839C47.6262 41.3621 47.5433 40.9444 47.3819 40.5546C47.2206 40.1649 46.9841 39.8108 46.6859 39.5124C46.3877 39.2141 46.0336 38.9775 45.6439 38.816C45.2543 38.6546 44.8366 38.5715 44.4148 38.5715H44.4147ZM51.0849 63.9182C47.8465 63.3464 44.6507 61.8607 41.8611 60.1568C38.6344 58.1835 35.6204 55.724 32.9469 53.0497C30.2735 50.3754 27.8128 47.3635 25.8397 44.1336C24.1373 41.3448 22.6477 38.1478 22.079 34.911C21.9423 34.1871 21.9834 33.4408 22.1988 32.7363C22.4277 32.0385 22.8204 31.4057 23.344 30.8908L27.6154 26.6209C27.8155 26.4221 28.086 26.3106 28.368 26.3106C28.6499 26.3106 28.9205 26.4221 29.1205 26.6209L36.7927 34.2924C36.991 34.4929 37.1023 34.7635 37.1023 35.0455C37.1023 35.3275 36.991 35.5981 36.7927 35.7986L32.7148 39.8777C32.4243 40.1661 32.246 40.5486 32.2119 40.9565C32.1779 41.3645 32.2903 41.7713 32.529 42.1039C34.0767 44.2774 35.8912 46.3361 37.7754 48.2212C39.6596 50.1062 41.718 51.921 43.8926 53.4668C44.2246 53.7061 44.6311 53.8189 45.0389 53.7851C45.4468 53.7513 45.8292 53.573 46.1172 53.2823L50.1991 49.2035C50.2974 49.1047 50.4144 49.0263 50.5432 48.9731C50.6721 48.9198 50.8102 48.8927 50.9496 48.8932C51.2323 48.8927 51.5037 49.0043 51.7042 49.2035L59.3765 56.8754C59.5748 57.0759 59.686 57.3464 59.686 57.6283C59.686 57.9103 59.5748 58.1808 59.3765 58.3813L55.1048 62.6518C54.5937 63.1816 53.958 63.575 53.2559 63.7962C52.5537 64.0174 51.8074 64.0593 51.0849 63.9182ZM45.9624 24.0484C45.8271 24.0496 45.6929 24.024 45.5676 23.973C45.4423 23.9221 45.3283 23.8469 45.2322 23.7516C45.1361 23.6564 45.0599 23.5431 45.0078 23.4183C44.9558 23.2934 44.929 23.1595 44.929 23.0242C44.929 22.8889 44.9558 22.755 45.0078 22.6301C45.0599 22.5053 45.1361 22.392 45.2322 22.2967C45.3283 22.2015 45.4423 22.1263 45.5676 22.0754C45.6929 22.0244 45.8271 21.9988 45.9624 22C48.3306 21.9999 50.6757 22.4663 52.8637 23.3725C55.0517 24.2788 57.0398 25.6072 58.7144 27.2818C60.389 28.9564 61.7173 30.9445 62.6235 33.1326C63.5297 35.3206 63.9961 37.6657 63.9959 40.034C63.9959 40.3059 63.8879 40.5667 63.6956 40.759C63.5033 40.9512 63.2425 41.0592 62.9706 41.0592C62.6987 41.0592 62.4379 40.9512 62.2457 40.759C62.0534 40.5667 61.9454 40.3059 61.9454 40.034C61.9458 35.7947 60.2621 31.7288 57.2647 28.7309C54.2673 25.733 50.2018 24.0485 45.9625 24.0481L45.9624 24.0484Z" fill="#4CAF50"/>
<defs>
<filter id="filter0_b_121_2350" x="-7" y="-7" width="100" height="100" filterUnits="userSpaceOnUse" color-interpolation-filters="sRGB">
<feFlood flood-opacity="0" result="BackgroundImageFix"/>
<feGaussianBlur in="BackgroundImageFix" stdDeviation="3.5"/>
<feComposite in2="SourceAlpha" operator="in" result="effect1_backgroundBlur_121_2350"/>
<feBlend mode="normal" in="SourceGraphic" in2="effect1_backgroundBlur_121_2350" result="shape"/>
</filter>
<linearGradient id="paint0_linear_121_2350" x1="43" y1="0" x2="43" y2="82.0654" gradientUnits="userSpaceOnUse">
<stop stop-color="white" stop-opacity="0.47"/>
<stop offset="1" stop-color="white" stop-opacity="0.09"/>
</linearGradient>
<linearGradient id="paint1_linear_121_2350" x1="43" y1="0" x2="43" y2="82.0654" gradientUnits="userSpaceOnUse">
<stop stop-color="white" stop-opacity="0.25"/>
<stop offset="1" stop-color="white" stop-opacity="0.04"/>
</linearGradient>
</defs>
</svg>
