<svg width="86" height="86" viewBox="0 0 86 86" fill="none" xmlns="http://www.w3.org/2000/svg">
<g filter="url(#filter0_b_121_2372)">
<path d="M0 10C0 4.47715 4.47715 0 10 0H76C81.5228 0 86 4.47715 86 10V76C86 81.5229 81.5228 86 76 86H10C4.47715 86 0 81.5229 0 76V10Z" fill="url(#paint0_linear_121_2372)" fill-opacity="0.3"/>
<path d="M0.5 10C0.5 4.75329 4.75329 0.5 10 0.5H76C81.2467 0.5 85.5 4.75329 85.5 10V76C85.5 81.2467 81.2467 85.5 76 85.5H10C4.75329 85.5 0.5 81.2467 0.5 76V10Z" stroke="url(#paint1_linear_121_2372)"/>
</g>
<path fill-rule="evenodd" clip-rule="evenodd" d="M42.6559 55.1977C4.86326 10.9341 80.4485 10.9341 42.6559 55.1977V55.1977Z" fill="#FF4A4A"/>
<path d="M42.6555 35.6863C44.8297 35.6863 46.5922 33.9237 46.5922 31.7495C46.5922 29.5753 44.8297 27.8128 42.6555 27.8128C40.4813 27.8128 38.7188 29.5753 38.7188 31.7495C38.7188 33.9237 40.4813 35.6863 42.6555 35.6863Z" fill="white"/>
<path fill-rule="evenodd" clip-rule="evenodd" d="M29.1965 46.3893H36.2334C37.8573 49.0958 39.9487 52.0237 42.6552 55.1977C45.3617 52.0237 47.4777 49.0958 49.1016 46.3893H56.1139C57.7132 46.3893 58.845 47.6933 59.0172 49.268L60.2967 61.1028C60.4689 62.6775 59.0172 64.0062 57.4179 64.0062H27.9171C26.3178 64.0062 24.8415 62.6775 25.0137 61.1028L26.3178 49.268C26.49 47.6933 27.6218 46.3893 29.1965 46.3893Z" fill="#44C868"/>
<path fill-rule="evenodd" clip-rule="evenodd" d="M59.3617 52.5158L59.9522 57.855H50.6763L52.3002 64.0061H46.7888L45.1403 57.855H25.3828L25.9487 52.5158H40.49C41.1789 53.4016 41.8925 54.2873 42.6552 55.1977C43.4426 54.2873 44.1561 53.4016 44.845 52.5158H59.3617Z" fill="#FFBB24"/>
<path fill-rule="evenodd" clip-rule="evenodd" d="M46.7888 64.0061L45.1403 57.855H25.3828L25.0137 61.1028C24.8415 62.6775 26.3178 64.0061 27.9171 64.0061H46.7888Z" fill="#1EA4E9"/>
<defs>
<filter id="filter0_b_121_2372" x="-7" y="-7" width="100" height="100" filterUnits="userSpaceOnUse" color-interpolation-filters="sRGB">
<feFlood flood-opacity="0" result="BackgroundImageFix"/>
<feGaussianBlur in="BackgroundImageFix" stdDeviation="3.5"/>
<feComposite in2="SourceAlpha" operator="in" result="effect1_backgroundBlur_121_2372"/>
<feBlend mode="normal" in="SourceGraphic" in2="effect1_backgroundBlur_121_2372" result="shape"/>
</filter>
<linearGradient id="paint0_linear_121_2372" x1="43" y1="0" x2="43" y2="82.0654" gradientUnits="userSpaceOnUse">
<stop stop-color="white" stop-opacity="0.47"/>
<stop offset="1" stop-color="white" stop-opacity="0.09"/>
</linearGradient>
<linearGradient id="paint1_linear_121_2372" x1="43" y1="0" x2="43" y2="82.0654" gradientUnits="userSpaceOnUse">
<stop stop-color="white" stop-opacity="0.25"/>
<stop offset="1" stop-color="white" stop-opacity="0.04"/>
</linearGradient>
</defs>
</svg>
