<svg width="65" height="65" viewBox="0 0 65 65" fill="none" xmlns="http://www.w3.org/2000/svg">
<g id="Group 39">
<g id="Ellipse 7" filter="url(#filter0_b_121_1717)">
<circle cx="32.5" cy="32.5" r="32.5" fill="url(#paint0_linear_121_1717)" fill-opacity="0.3"/>
<circle cx="32.5" cy="32.5" r="32" stroke="url(#paint1_linear_121_1717)"/>
</g>
<path id="Vector" d="M28.4238 38.9096H19.9035L17.7038 45.2153C17.6788 45.4233 17.5455 45.5273 17.3063 45.5273H13.3068C13.0402 45.5273 12.9473 45.3973 13.0283 45.1373L20.7463 22.3794C20.9644 21.6865 21.0721 20.964 21.0653 20.2381C21.0616 20.2107 21.0634 20.1829 21.0705 20.1562C21.0777 20.1295 21.0901 20.1044 21.107 20.0825C21.1239 20.0605 21.145 20.0421 21.1691 20.0283C21.1932 20.0144 21.2198 20.0054 21.2474 20.0018C21.266 19.9994 21.2848 19.9994 21.3033 20.0018H26.8978C27.0597 20.0018 27.1525 20.0679 27.1787 20.1956L35.8204 45.1728C35.9013 45.4091 35.8347 45.5273 35.6204 45.5273H31.1425C31.0596 45.5322 30.9772 45.5123 30.9059 45.4702C30.8346 45.428 30.7777 45.3656 30.7425 45.291L28.4238 38.9096ZM20.8558 34.6553H27.493C27.3335 34.3079 24.3482 24.7453 24.1339 23.9393H24.0958L20.8558 34.6553ZM48.5996 37.137H41.5458C41.5736 38.7733 42.0362 40.0653 42.9337 41.0131C43.8312 41.9608 45.1802 42.4335 46.9808 42.4312C48.489 42.4579 49.986 42.1705 51.3754 41.5874C51.5302 41.4858 51.6135 41.5354 51.6135 41.741V44.5417C51.6124 44.6316 51.5903 44.72 51.549 44.7999C51.5077 44.8799 51.4483 44.9493 51.3754 45.0026C49.9153 45.6675 48.1163 46 45.9785 46C42.8202 46 40.5015 45.0979 39.0223 43.2938C37.5432 41.4897 36.8044 39.2318 36.806 36.5201C36.806 33.7013 37.5765 31.3465 39.1176 29.4557C40.6586 27.5649 42.7663 26.6195 45.4405 26.6195C47.9799 26.6195 49.8748 27.3994 51.1255 28.9593C52.3695 30.5188 53.03 32.4584 52.9942 34.4473C53.0184 35.1927 52.9665 35.9387 52.8395 36.6737C52.834 36.753 52.8 36.8277 52.7436 36.8841C52.6872 36.9405 52.6122 36.9749 52.5324 36.981C51.8642 37.0842 50.5549 37.1354 48.6044 37.1346L48.5996 37.137ZM41.5458 34.1826H46.6356C47.7465 34.1826 48.3758 34.1566 48.5234 34.1046C48.5557 33.9277 48.5684 33.7478 48.5615 33.5681C48.5727 32.6443 48.3039 31.7386 47.7902 30.9683C47.276 30.201 46.4428 29.8173 45.2905 29.8173C44.1605 29.8173 43.2876 30.2262 42.6718 31.0439C42.0143 31.9682 41.6248 33.0538 41.5458 34.1826Z" fill="#D7A2FE"/>
</g>
<defs>
<filter id="filter0_b_121_1717" x="-7" y="-7" width="79" height="79" filterUnits="userSpaceOnUse" color-interpolation-filters="sRGB">
<feFlood flood-opacity="0" result="BackgroundImageFix"/>
<feGaussianBlur in="BackgroundImageFix" stdDeviation="3.5"/>
<feComposite in2="SourceAlpha" operator="in" result="effect1_backgroundBlur_121_1717"/>
<feBlend mode="normal" in="SourceGraphic" in2="effect1_backgroundBlur_121_1717" result="shape"/>
</filter>
<linearGradient id="paint0_linear_121_1717" x1="32.5" y1="0" x2="32.5" y2="68.2918" gradientUnits="userSpaceOnUse">
<stop stop-color="#00998F"/>
<stop offset="1" stop-color="white" stop-opacity="0.09"/>
</linearGradient>
<linearGradient id="paint1_linear_121_1717" x1="32.5" y1="0" x2="32.5" y2="68.2918" gradientUnits="userSpaceOnUse">
<stop stop-color="white" stop-opacity="0.25"/>
<stop offset="1" stop-color="white" stop-opacity="0.04"/>
</linearGradient>
</defs>
</svg>
