<svg width="65" height="65" viewBox="0 0 65 65" fill="none" xmlns="http://www.w3.org/2000/svg">
<g id="Group 38">
<g id="Ellipse 7" filter="url(#filter0_b_121_1714)">
<circle cx="32.5" cy="32.5" r="32.5" fill="url(#paint0_linear_121_1714)" fill-opacity="0.3"/>
<circle cx="32.5" cy="32.5" r="32" stroke="url(#paint1_linear_121_1714)"/>
</g>
<path id="Vector" d="M32.7014 39.9974H23.4754L21.0935 46.9829C21.0651 47.2133 20.9208 47.3285 20.663 47.3285H16.3322C16.0435 47.3285 15.943 47.1845 16.0306 46.8965L24.3879 21.6905C24.6223 20.9225 24.7388 20.1224 24.7334 19.3184C24.729 19.2881 24.7307 19.2572 24.7382 19.2276C24.7457 19.1979 24.759 19.1701 24.7772 19.1457C24.7955 19.1214 24.8183 19.1009 24.8444 19.0856C24.8705 19.0703 24.8994 19.0604 24.9293 19.0566C24.9498 19.0541 24.9706 19.0541 24.9912 19.0566H31.0542C31.2295 19.0566 31.33 19.1299 31.3584 19.2713L40.7108 46.9462C40.7984 47.208 40.7262 47.3337 40.4942 47.3337H35.6453C35.5556 47.3395 35.4662 47.3176 35.3889 47.2709C35.3116 47.2242 35.25 47.1548 35.2123 47.0719L32.7014 39.9974ZM24.5065 35.2845H31.6935C31.5208 34.8996 28.2882 24.3088 28.0562 23.4133H28.015L24.5065 35.2845ZM45.8793 24.2878C45.4728 24.3059 45.0668 24.2409 44.6856 24.0965C44.3043 23.9521 43.9555 23.7314 43.6598 23.4474C43.3701 23.1485 43.1449 22.7916 42.9984 22.3994C42.8519 22.0072 42.7875 21.5884 42.8091 21.1695C42.7903 20.7454 42.8582 20.3219 43.0086 19.9258C43.159 19.5296 43.3886 19.1695 43.683 18.8681C43.9814 18.5796 44.3334 18.3546 44.7186 18.2063C45.1037 18.0579 45.5141 17.9892 45.9257 18.004C46.3381 17.9824 46.7504 18.048 47.1365 18.1967C47.5225 18.3455 47.8739 18.5741 48.1684 18.8681C48.4497 19.1763 48.6677 19.5383 48.8098 19.933C48.9519 20.3276 49.0151 20.7471 48.9959 21.1669C49.0176 21.5857 48.9531 22.0046 48.8066 22.3968C48.6602 22.7889 48.4349 23.1458 48.1452 23.4448C47.842 23.7317 47.4853 23.9541 47.0962 24.0989C46.707 24.2437 46.2933 24.308 45.8793 24.2878ZM43.3247 46.9357V26.7333C43.3189 26.6931 43.3209 26.652 43.3307 26.6126C43.3405 26.5732 43.3579 26.5361 43.3818 26.5035C43.4058 26.4709 43.4359 26.4434 43.4703 26.4227C43.5047 26.4019 43.5428 26.3882 43.5825 26.3824C43.6123 26.3771 43.6429 26.3771 43.6727 26.3824H48.1375C48.2174 26.3712 48.2985 26.3924 48.3631 26.4414C48.4278 26.4904 48.4708 26.5633 48.4829 26.6443C48.4855 26.6721 48.4855 26.7002 48.4829 26.7281V46.9724C48.4888 47.0126 48.4867 47.0536 48.4769 47.0931C48.4671 47.1325 48.4497 47.1696 48.4258 47.2022C48.4018 47.2348 48.3718 47.2622 48.3373 47.283C48.3029 47.3038 48.2648 47.3175 48.2251 47.3232C48.1961 47.3283 48.1665 47.3283 48.1375 47.3232H43.7114C43.6215 47.3359 43.5303 47.3119 43.4578 47.2565C43.3853 47.201 43.3375 47.1186 43.3247 47.0274C43.3201 46.997 43.3201 46.9661 43.3247 46.9357Z" fill="#FF9A00"/>
</g>
<defs>
<filter id="filter0_b_121_1714" x="-7" y="-7" width="79" height="79" filterUnits="userSpaceOnUse" color-interpolation-filters="sRGB">
<feFlood flood-opacity="0" result="BackgroundImageFix"/>
<feGaussianBlur in="BackgroundImageFix" stdDeviation="3.5"/>
<feComposite in2="SourceAlpha" operator="in" result="effect1_backgroundBlur_121_1714"/>
<feBlend mode="normal" in="SourceGraphic" in2="effect1_backgroundBlur_121_1714" result="shape"/>
</filter>
<linearGradient id="paint0_linear_121_1714" x1="32.5" y1="0" x2="32.5" y2="68.2918" gradientUnits="userSpaceOnUse">
<stop stop-color="#00998F"/>
<stop offset="1" stop-color="white" stop-opacity="0.09"/>
</linearGradient>
<linearGradient id="paint1_linear_121_1714" x1="32.5" y1="0" x2="32.5" y2="68.2918" gradientUnits="userSpaceOnUse">
<stop stop-color="white" stop-opacity="0.25"/>
<stop offset="1" stop-color="white" stop-opacity="0.04"/>
</linearGradient>
</defs>
</svg>
