<svg width="78" height="78" viewBox="0 0 78 78" fill="none" xmlns="http://www.w3.org/2000/svg">
<g id="Icon">
<g id="BG" filter="url(#filter0_b_121_1966)">
<circle cx="39" cy="39" r="39" fill="url(#paint0_linear_121_1966)" fill-opacity="0.3"/>
<circle cx="39" cy="39" r="38.5" stroke="url(#paint1_linear_121_1966)"/>
</g>
<g id="icon">
<path id="Vector" d="M49.7536 48.7499C47.3814 48.7499 45.4521 46.8207 45.4521 44.4485C45.4521 42.0762 47.3814 40.0753 49.7536 40.0753C52.1259 40.0753 54.0551 42.0762 54.0551 44.4485C54.0551 46.8207 52.1259 48.7499 49.7536 48.7499Z" fill="#F6A96C"/>
<path id="Vector_2" d="M49.7542 48.75C48.1171 48.75 46.6132 49.2862 45.378 50.1738L43.7988 53.7409L46.5281 57.3529H57.3535V56.2776C57.3535 52.1203 53.9114 48.75 49.7542 48.75Z" fill="#32DDF9"/>
<path id="Vector_3" d="M26.096 29.7314L22.7649 31.4724L23.3972 27.6534L20.6475 25.0417L24.46 24.504L26.096 20.647L27.7721 24.504L31.4728 25.0417L28.7948 27.6534L29.4271 31.4724L26.096 29.7314ZM41.6888 27.6439L42.334 31.4724L39.0004 29.7303L35.6668 31.4724L36.312 27.6439L33.6236 25.0417L37.3658 24.504L39.0004 20.647L40.6781 24.504L44.3772 25.0417L41.6888 27.6439Z" fill="#FFDA2D"/>
<path id="Vector_4" d="M51.9052 29.7314L48.574 31.4724L49.2063 27.6534L46.5283 25.0417L50.2692 24.504L51.9052 20.647L53.5812 24.504L57.3537 25.0417L54.604 27.6534L55.2363 31.4724L51.9052 29.7314Z" fill="#FDBF00"/>
<path id="Vector_5" d="M28.2468 48.7499C25.8745 48.7499 23.9453 46.8207 23.9453 44.4485C23.9453 42.0762 25.8745 40.0753 28.2468 40.0753C30.619 40.0753 32.5483 42.0762 32.5483 44.4485C32.5483 46.8207 30.619 48.7499 28.2468 48.7499Z" fill="#FFBD86"/>
<path id="Vector_6" d="M28.2467 48.75C24.0895 48.75 20.6475 52.1203 20.6475 56.2776V57.3529H31.4728L34.1405 54.1268L32.623 50.174C31.3877 49.2863 29.8839 48.75 28.2467 48.75Z" fill="#84ECF7"/>
<path id="Vector_7" d="M42.3336 31.4724L39 29.7303V20.647L40.6777 24.504L44.3768 25.0417L41.6884 27.6439L42.3336 31.4724Z" fill="#FDBF00"/>
<path id="Vector_8" d="M39.0007 37.9246C36.6349 37.9246 34.6992 39.8603 34.6992 42.2261C34.6992 44.5919 36.6349 46.5993 39.0007 46.5993C41.3665 46.5993 43.3022 44.5919 43.3022 42.2261C43.3022 39.8603 41.3665 37.9246 39.0007 37.9246Z" fill="#FED2A4"/>
<path id="Vector_9" d="M46.5278 54.1268V57.3529H31.4727V54.1268C31.4727 52.6645 31.9028 51.3309 32.6127 50.1695C33.946 48.0402 36.3118 46.5992 39.0002 46.5992C41.6886 46.5992 44.0545 48.0401 45.3878 50.1695C46.0977 51.3309 46.5278 52.6645 46.5278 54.1268Z" fill="#FF637B"/>
<path id="Vector_10" d="M39 46.5993V37.9246C41.3658 37.9246 43.3015 39.8603 43.3015 42.2261C43.3015 44.5919 41.3658 46.5993 39 46.5993Z" fill="#F6A96C"/>
<path id="Vector_11" d="M46.5276 54.1268V57.3529H39V46.5992C41.6884 46.5992 44.0542 48.0401 45.3875 50.1695C46.0974 51.3309 46.5276 52.6645 46.5276 54.1268Z" fill="#E63950"/>
</g>
</g>
<defs>
<filter id="filter0_b_121_1966" x="-7" y="-7" width="92" height="92" filterUnits="userSpaceOnUse" color-interpolation-filters="sRGB">
<feFlood flood-opacity="0" result="BackgroundImageFix"/>
<feGaussianBlur in="BackgroundImageFix" stdDeviation="3.5"/>
<feComposite in2="SourceAlpha" operator="in" result="effect1_backgroundBlur_121_1966"/>
<feBlend mode="normal" in="SourceGraphic" in2="effect1_backgroundBlur_121_1966" result="shape"/>
</filter>
<linearGradient id="paint0_linear_121_1966" x1="39" y1="0" x2="39" y2="74.4314" gradientUnits="userSpaceOnUse">
<stop stop-color="white" stop-opacity="0.47"/>
<stop offset="1" stop-color="white" stop-opacity="0.09"/>
</linearGradient>
<linearGradient id="paint1_linear_121_1966" x1="39" y1="0" x2="39" y2="74.4314" gradientUnits="userSpaceOnUse">
<stop stop-color="white" stop-opacity="0.25"/>
<stop offset="1" stop-color="white" stop-opacity="0.04"/>
</linearGradient>
</defs>
</svg>
