<svg width="78" height="78" viewBox="0 0 78 78" fill="none" xmlns="http://www.w3.org/2000/svg">
<g id="Icon">
<g id="BG" filter="url(#filter0_b_121_1984)">
<circle cx="39" cy="39" r="39" fill="url(#paint0_linear_121_1984)" fill-opacity="0.3"/>
<circle cx="39" cy="39" r="38.5" stroke="url(#paint1_linear_121_1984)"/>
</g>
<g id="Group">
<path id="Vector" fill-rule="evenodd" clip-rule="evenodd" d="M40.147 23.6461C41.5566 23.9819 42.9036 24.5403 44.1373 25.3004L46.7302 24.1488L49.7864 27.2048L48.6351 29.7969C49.3953 31.031 49.9539 32.3784 50.2897 33.7884L52.9351 34.8067V39.1285L50.289 40.147C49.9532 41.5566 49.3948 42.9037 48.6347 44.1374L49.7863 46.7303L46.7303 49.7864L44.1382 48.6352C42.9041 49.3954 41.5567 49.954 40.1467 50.2897L39.1285 52.9352H34.8067L33.7882 50.2891C32.3785 49.9533 31.0315 49.3949 29.7978 48.6348L27.2049 49.7864L24.1488 46.7304L25.3 44.1382C24.5398 42.9042 23.9812 41.5567 23.6455 40.1467L21 39.1285V34.8067L23.6459 33.7882C23.9816 32.3785 24.5401 31.0313 25.3002 29.7975L24.1488 27.2049L27.2047 24.1487L29.7977 25.3004C31.0314 24.5403 32.3785 23.9819 33.7882 23.6461L34.8067 21H39.1285L40.147 23.6461Z" fill="#FFE177"/>
<path id="Vector_2" fill-rule="evenodd" clip-rule="evenodd" d="M29.7981 48.6348L27.2052 49.7863L26.8039 49.385L29.234 48.3058C29.4194 48.4199 29.6074 48.5296 29.7981 48.6348ZM40.1472 23.6461C41.5377 23.9773 42.8674 24.5252 44.0876 25.2697C44.1038 25.2806 44.1204 25.2909 44.1376 25.3004L43.3968 25.6294C42.1628 24.8695 40.2521 23.9816 38.8424 23.6461L37.8239 21.0001H39.1287L40.1472 23.6461ZM26.8037 24.55L27.205 24.1487L29.798 25.3004C29.6073 25.4056 29.4192 25.5153 29.2338 25.6294L26.8037 24.55ZM45.827 24.5501L46.7305 24.1488L49.7866 27.2048L48.6354 29.7969C49.3956 31.031 49.9542 32.3784 50.29 33.7884L52.9354 34.8066V39.1284L50.2893 40.147C49.9535 41.5566 49.3951 42.9037 48.635 44.1374L49.7866 46.7303L46.7306 49.7864L45.827 49.3851L48.4817 46.7303L47.3301 44.1374C48.0902 42.9037 48.6487 41.5566 48.9844 40.147L51.6305 39.1284V34.8066L48.9851 33.7884C48.6493 32.3784 48.0908 31.031 47.3305 29.7969L48.4818 27.2048L45.827 24.5501ZM44.088 48.6661C42.8677 49.4106 41.5378 49.9585 40.1471 50.2897L39.1289 52.9352H37.824L38.8422 50.2897C40.2524 49.9541 42.1634 49.0662 43.3977 48.3062L44.1385 48.6352C44.1212 48.6447 44.1044 48.655 44.088 48.6661Z" fill="#FFD064"/>
<path id="Vector_3" d="M43.5282 43.5319C47.1536 39.9065 47.1536 34.0285 43.5282 30.4031C39.9028 26.7777 34.0248 26.7777 30.3994 30.4031C26.7739 34.0285 26.7739 39.9065 30.3994 43.5319C34.0248 47.1574 39.9028 47.1574 43.5282 43.5319Z" fill="#ECEFF1"/>
<path id="Vector_4" fill-rule="evenodd" clip-rule="evenodd" d="M36.9671 27.6841C37.1865 27.6841 37.4039 27.6923 37.6195 27.7072C32.797 28.0421 28.9885 32.06 28.9885 36.9675C28.9885 41.8752 32.797 45.8929 37.6195 46.2278C37.4039 46.2428 37.1865 46.251 36.9671 46.251C31.8401 46.251 27.6836 42.0945 27.6836 36.9675C27.6836 31.8405 31.84 27.6841 36.9671 27.6841Z" fill="#D1D1D6"/>
<path id="Vector_5" fill-rule="evenodd" clip-rule="evenodd" d="M31.3638 35.7887C32.026 35.1265 33.1095 35.1265 33.7716 35.7886L35.4967 37.5137L40.1642 32.8461C40.8263 32.184 41.9099 32.184 42.572 32.8461V32.8462C43.2342 33.5083 43.2342 34.5918 42.572 35.254L36.7338 41.0921C35.8897 41.9363 34.7605 41.5931 34.0119 40.8446L31.3638 38.1965C30.7016 37.5343 30.7016 36.4508 31.3638 35.7887Z" fill="#8AC9FE"/>
<path id="Vector_6" fill-rule="evenodd" clip-rule="evenodd" d="M56.8369 47.7621V55.543C56.8369 56.3443 56.1813 57 55.3798 57H40.1592C39.3578 57 38.7021 56.3443 38.7021 55.543V47.7624L56.8369 47.7621Z" fill="#ECBA78"/>
<path id="Vector_7" fill-rule="evenodd" clip-rule="evenodd" d="M45.2631 43.3674L43.8828 43.3675V41.4631C43.8828 40.6055 44.5844 39.9039 45.442 39.9039H50.0969C50.9544 39.9039 51.6561 40.6055 51.6561 41.4631V43.3675L50.2758 43.3674V41.4631C50.2758 41.3674 50.1925 41.2842 50.0969 41.2842H45.442C45.3464 41.2842 45.2632 41.3674 45.2632 41.4631V43.3674H45.2631Z" fill="#837683"/>
<path id="Vector_8" fill-rule="evenodd" clip-rule="evenodd" d="M45.2631 43.3674L43.8828 43.3675V43.3674H44.6849V41.4631C44.6849 41.3674 44.7681 41.2842 44.8638 41.2842H45.442C45.3464 41.2842 45.2631 41.3674 45.2631 41.4631V43.3674ZM49.5187 39.9038H50.0969C50.9544 39.9038 51.6561 40.6055 51.6561 41.463V43.3674L51.0779 43.3673V41.4629C51.0779 40.6055 50.3762 39.9038 49.5187 39.9038Z" fill="#685E68"/>
<path id="Vector_9" fill-rule="evenodd" clip-rule="evenodd" d="M56.8371 47.7621V55.543C56.8371 56.3443 56.1815 57 55.3801 57H54.2236C55.025 57 55.6807 56.3443 55.6807 55.543V47.7621H56.8371Z" fill="#E3A76F"/>
<path id="Vector_10" fill-rule="evenodd" clip-rule="evenodd" d="M39.1565 49.3186C38.9963 49.2172 38.8438 49.1093 38.7029 48.9936C38.1787 48.5633 37.8154 48.0261 37.8154 47.3208V43.7689C37.8154 43.3577 38.1508 43.0223 38.562 43.0223H56.9783C57.3895 43.0223 57.7248 43.3577 57.7248 43.7689V47.3208C57.7248 48.026 57.3615 48.5633 56.8375 48.9935C56.6966 49.1092 56.544 49.2171 56.3838 49.3185C53.3528 51.2364 42.1656 51.2224 39.1565 49.3186Z" fill="#E3A76F"/>
<path id="Vector_11" fill-rule="evenodd" clip-rule="evenodd" d="M52.968 43.0223H42.5713V45.45C42.5713 45.9648 42.9925 46.386 43.5073 46.386H52.0319C52.5467 46.386 52.9679 45.9648 52.9679 45.45V43.0223H52.968ZM55.6806 43.0223H56.9778C57.3889 43.0223 57.7243 43.3578 57.7243 43.7689V47.3209C57.7243 48.0261 57.3611 48.5633 56.837 48.9935C56.6961 49.1092 56.5435 49.2172 56.3833 49.3186C56.1833 49.4451 55.9469 49.563 55.6806 49.6727V43.0223Z" fill="#C48958"/>
<path id="Vector_12" fill-rule="evenodd" clip-rule="evenodd" d="M49.6042 50.9872C49.6042 52.0006 48.7827 52.822 47.7694 52.822C46.756 52.822 45.9346 52.0005 45.9346 50.9872C45.9346 49.9772 46.7528 49.1525 47.7694 49.1525C48.7859 49.1525 49.6042 49.9771 49.6042 50.9872Z" fill="#837683"/>
<path id="Vector_13" fill-rule="evenodd" clip-rule="evenodd" d="M49.6045 50.9873C49.6045 52.0006 48.783 52.822 47.7696 52.822C47.6728 52.8221 47.5761 52.8145 47.4805 52.7993C48.3564 52.6607 49.0262 51.9022 49.0262 50.9873C49.0262 50.0749 48.3586 49.314 47.4805 49.1751C47.5761 49.16 47.6728 49.1524 47.7696 49.1524C48.7862 49.1525 49.6045 49.9771 49.6045 50.9873Z" fill="#685E68"/>
</g>
</g>
<defs>
<filter id="filter0_b_121_1984" x="-7" y="-7" width="92" height="92" filterUnits="userSpaceOnUse" color-interpolation-filters="sRGB">
<feFlood flood-opacity="0" result="BackgroundImageFix"/>
<feGaussianBlur in="BackgroundImageFix" stdDeviation="3.5"/>
<feComposite in2="SourceAlpha" operator="in" result="effect1_backgroundBlur_121_1984"/>
<feBlend mode="normal" in="SourceGraphic" in2="effect1_backgroundBlur_121_1984" result="shape"/>
</filter>
<linearGradient id="paint0_linear_121_1984" x1="39" y1="0" x2="39" y2="74.4314" gradientUnits="userSpaceOnUse">
<stop stop-color="white" stop-opacity="0.47"/>
<stop offset="1" stop-color="white" stop-opacity="0.09"/>
</linearGradient>
<linearGradient id="paint1_linear_121_1984" x1="39" y1="0" x2="39" y2="74.4314" gradientUnits="userSpaceOnUse">
<stop stop-color="white" stop-opacity="0.25"/>
<stop offset="1" stop-color="white" stop-opacity="0.04"/>
</linearGradient>
</defs>
</svg>
