<svg width="78" height="78" viewBox="0 0 78 78" fill="none" xmlns="http://www.w3.org/2000/svg">
<g id="Icon">
<g id="BG" filter="url(#filter0_b_121_2004)">
<circle cx="39" cy="39" r="39" fill="url(#paint0_linear_121_2004)" fill-opacity="0.3"/>
<circle cx="39" cy="39" r="38.5" stroke="url(#paint1_linear_121_2004)"/>
</g>
<g id="Group">
<path id="Vector" d="M52.8174 53.4225L48.4834 52.4686L47.1401 56.7092C47.0435 57.0141 46.6306 57.0588 46.471 56.7816L41.1094 47.4677C43.7505 46.8954 46.1004 45.5392 47.9047 43.6542L53.215 52.8801C53.3744 53.1568 53.1293 53.4912 52.8174 53.4225Z" fill="#FD646F"/>
<path id="Vector_2" d="M52.8174 53.4225L48.8114 52.5408C48.7217 52.521 48.628 52.5356 48.5485 52.5814C48.469 52.6273 48.4096 52.7013 48.3819 52.7888L47.1401 56.7091C47.0435 57.014 46.6306 57.0588 46.471 56.7816L41.8777 48.8018L41.1094 47.4676C43.7505 46.8954 46.1004 45.5391 47.9047 43.6541L48.6672 44.9779L53.2151 52.88C53.3743 53.1569 53.1292 53.4912 52.8174 53.4225Z" fill="#FD646F"/>
<path id="Vector_3" d="M52.817 53.4222L48.8112 52.5406C48.6252 52.5002 48.4392 52.6075 48.3818 52.7884L48.813 51.4486C48.8411 51.3614 48.9007 51.2878 48.9802 51.2423C49.0597 51.1967 49.1533 51.1825 49.2428 51.2024L52.6898 51.9686L53.2147 52.8803C53.3743 53.1568 53.1287 53.4913 52.817 53.4222Z" fill="#FC4755"/>
<path id="Vector_4" d="M36.2405 47.356L30.7941 56.8156C30.6345 57.0928 30.2216 57.0481 30.125 56.7432L28.8831 52.8227C28.8554 52.7353 28.7959 52.6613 28.7165 52.6154C28.637 52.5695 28.5433 52.555 28.4536 52.5747L24.4477 53.4564C24.1358 53.5251 23.8907 53.1907 24.05 52.914L29.1155 44.1136C31.0066 45.9065 33.5575 46.9142 36.2405 47.356Z" fill="#FD646F"/>
<g id="Group_2">
<path id="Vector_5" d="M29.8322 45.4226L25.3184 53.2643L24.4477 53.4561C24.1358 53.5249 23.8907 53.1906 24.05 52.9137L28.3618 45.4226L29.5278 43.3917C29.8417 43.6889 30.1697 43.9713 30.5116 44.2369L29.8322 45.4226ZM31.3252 55.892L30.7936 56.8155C30.6341 57.0927 30.2216 57.0486 30.1245 56.7434L28.8826 52.823C28.855 52.7355 28.7956 52.6614 28.7162 52.6155C28.6367 52.5695 28.5429 52.5549 28.4533 52.5745L29.8267 52.2724C29.9163 52.2527 30.0101 52.2672 30.0895 52.313C30.169 52.3589 30.2284 52.4328 30.2561 52.5203L31.3252 55.892Z" fill="#FC4755"/>
<path id="Vector_6" d="M29.2385 43.8897L32.8207 45.5051L36.2409 47.3559L35.3238 48.9478C32.7665 48.4286 30.3938 47.2383 28.4329 45.4853C28.4094 45.4646 28.3858 45.444 28.3623 45.4226L29.2385 43.8897ZM48.6674 44.9779L47.9049 43.6542L43.8702 45.435L41.1096 47.4677L41.4199 48.0064L42.1819 49.3298L46.4713 56.7815C46.6308 57.0587 47.0437 57.014 47.1403 56.7091L47.4135 55.8468L43.1501 48.4205C45.214 47.7023 47.0929 46.5338 48.6674 44.9779Z" fill="#FC4755"/>
</g>
<path id="Vector_7" d="M51.9778 34.3846C51.9778 37.9821 50.5624 41.2492 48.2588 43.6541C46.4544 45.5391 44.1045 46.8954 41.4635 47.4677C40.5335 47.6687 39.5848 47.7699 38.6334 47.7693C37.8923 47.7693 37.1658 47.7088 36.4578 47.5923C33.9123 47.1734 31.6087 46.0318 29.7646 44.3843C29.6648 44.2958 29.5665 44.2056 29.4698 44.1136C29.1256 43.7872 28.7987 43.4431 28.4904 43.0826C28.1948 42.736 27.9169 42.3739 27.6574 41.9978C26.8685 40.8567 26.2622 39.5997 25.8604 38.272C25.4891 37.0419 25.2891 35.7372 25.2891 34.3847C25.2891 26.9928 31.2638 21 38.6334 21C39.9812 21 41.2826 21.2006 42.5083 21.5738C43.8487 21.9802 45.0986 22.593 46.2236 23.3755C46.5986 23.6359 46.9596 23.9146 47.3044 24.2118C47.766 24.6073 48.2001 25.0338 48.6036 25.4884C50.7028 27.8535 51.9778 30.9701 51.9778 34.3846Z" fill="#FAA515"/>
<path id="Vector_8" d="M38.6321 43.9713C43.9108 43.9713 48.19 39.6792 48.19 34.3846C48.19 29.0899 43.9108 24.7978 38.6321 24.7978C33.3534 24.7978 29.0742 29.0899 29.0742 34.3846C29.0742 39.6792 33.3534 43.9713 38.6321 43.9713Z" fill="#FAD207"/>
<path id="Vector_9" d="M48.1897 34.3847C48.1897 39.6791 43.9104 43.9713 38.6319 43.9713C33.3535 43.9713 29.0742 39.6791 29.0742 34.3847C29.0742 33.9849 29.0985 33.5911 29.1463 33.2047C29.7257 37.9431 33.752 41.6113 38.6319 41.6113C43.5119 41.6113 47.5382 37.9431 48.1176 33.2047C48.1654 33.5912 48.1897 33.985 48.1897 34.3847Z" fill="#FAA515"/>
<path id="Vector_10" fill-rule="evenodd" clip-rule="evenodd" d="M38.6319 24.798C33.3535 24.798 29.0742 29.0902 29.0742 34.3847C29.0742 39.6791 33.3535 43.9713 38.6319 43.9713C43.9104 43.9713 48.1897 39.6791 48.1897 34.3847C48.1897 29.0902 43.9104 24.798 38.6319 24.798ZM38.6319 42.865C33.9696 42.865 30.1771 39.061 30.1771 34.3847C30.1771 29.7083 33.9696 25.9043 38.6319 25.9043C43.2943 25.9043 47.0868 29.7083 47.0868 34.3847C47.0868 39.061 43.2943 42.865 38.6319 42.865Z" fill="#FAF063"/>
<path id="Vector_11" d="M38.9631 29.0833L40.2761 31.7654C40.3024 31.8192 40.3415 31.8658 40.3899 31.901C40.4384 31.9363 40.4947 31.9591 40.554 31.9676L43.5047 32.3916C43.8067 32.435 43.9275 32.8061 43.7089 33.0189L41.5687 35.1028C41.5259 35.1445 41.4939 35.196 41.4755 35.2528C41.457 35.3096 41.4527 35.3701 41.4629 35.4289L41.9729 38.3755C42.025 38.6765 41.7085 38.9061 41.4385 38.763L38.805 37.3675C38.752 37.3394 38.6929 37.3247 38.6329 37.3247C38.5729 37.3247 38.5138 37.3394 38.4608 37.3675L35.8272 38.763C35.5573 38.9061 35.2407 38.6766 35.2929 38.3755L35.8028 35.4289C35.813 35.3701 35.8087 35.3096 35.7903 35.2528C35.7718 35.196 35.7398 35.1445 35.697 35.1028L33.5569 33.0189C33.3383 32.806 33.4591 32.435 33.7611 32.3916L36.7118 31.9676C36.7711 31.9591 36.8274 31.9362 36.8758 31.901C36.9243 31.8657 36.9634 31.8192 36.9897 31.7654L38.3027 29.0833C38.4371 28.8086 38.8286 28.8086 38.9631 29.0833Z" fill="#FAA515"/>
</g>
</g>
<defs>
<filter id="filter0_b_121_2004" x="-7" y="-7" width="92" height="92" filterUnits="userSpaceOnUse" color-interpolation-filters="sRGB">
<feFlood flood-opacity="0" result="BackgroundImageFix"/>
<feGaussianBlur in="BackgroundImageFix" stdDeviation="3.5"/>
<feComposite in2="SourceAlpha" operator="in" result="effect1_backgroundBlur_121_2004"/>
<feBlend mode="normal" in="SourceGraphic" in2="effect1_backgroundBlur_121_2004" result="shape"/>
</filter>
<linearGradient id="paint0_linear_121_2004" x1="39" y1="0" x2="39" y2="74.4314" gradientUnits="userSpaceOnUse">
<stop stop-color="white" stop-opacity="0.47"/>
<stop offset="1" stop-color="white" stop-opacity="0.09"/>
</linearGradient>
<linearGradient id="paint1_linear_121_2004" x1="39" y1="0" x2="39" y2="74.4314" gradientUnits="userSpaceOnUse">
<stop stop-color="white" stop-opacity="0.25"/>
<stop offset="1" stop-color="white" stop-opacity="0.04"/>
</linearGradient>
</defs>
</svg>
