<svg width="1920" height="950" viewBox="0 0 1920 950" fill="none" xmlns="http://www.w3.org/2000/svg">
<path d="M973 968C973 968 659.734 883.916 664.598 668.257C669.462 452.598 1020.28 709.375 531.478 791.188C42.6797 873.001 -6 641.48 -6 641.48" stroke="white" stroke-miterlimit="10" stroke-dasharray="2 2"/>
<path d="M2766 322C2766 322 2452.73 237.916 2457.6 22.257C2462.46 -193.402 2813.28 63.3752 2324.48 145.188C1835.68 227.001 1787 -4.51986 1787 -4.51986" stroke="white" stroke-miterlimit="10" stroke-dasharray="2 2"/>
<path d="M1710.12 554.958C1707.5 554.625 1704.87 554.218 1702.25 553.736C1699.57 553.248 1696.93 552.523 1694.38 551.569C1693.72 551.319 1693.07 551.069 1692.4 550.764L1691.74 550.472C1691.6 550.181 1691.46 549.889 1691.33 549.597C1691.04 548.944 1690.79 548.292 1690.54 547.625C1689.59 545.067 1688.86 542.433 1688.36 539.75C1687.89 537.125 1687.47 534.5 1687.15 531.875C1686.8 529.263 1686.58 526.635 1686.5 524C1686.5 526.625 1686.18 529.25 1685.86 531.875C1685.54 534.5 1685.11 537.125 1684.64 539.75C1684.15 542.436 1683.42 545.072 1682.46 547.625C1682.21 548.292 1681.96 549.014 1681.67 549.597L1681.28 550.472L1680.6 550.764C1679.94 551.069 1679.28 551.319 1678.62 551.569C1676.07 552.523 1673.43 553.248 1670.75 553.736C1668.13 554.218 1665.5 554.625 1662.88 554.958C1660.25 555.292 1657.62 555.542 1655 555.611C1657.62 555.611 1660.25 555.931 1662.88 556.25C1665.5 556.569 1668.13 556.986 1670.75 557.472C1673.43 557.961 1676.07 558.686 1678.62 559.639C1679.28 559.889 1680.01 560.153 1680.6 560.444L1681.39 560.806C1681.49 561 1681.58 561.208 1681.67 561.403C1681.96 562.069 1682.21 562.792 1682.46 563.375C1683.42 565.928 1684.15 568.564 1684.64 571.25C1685.11 573.875 1685.53 576.5 1685.86 579.125C1686.19 581.75 1686.44 584.375 1686.5 587C1686.58 584.365 1686.8 581.737 1687.15 579.125C1687.47 576.5 1687.89 573.875 1688.36 571.25C1688.86 568.567 1689.59 565.933 1690.54 563.375C1690.79 562.722 1691.04 562.069 1691.33 561.403C1691.43 561.208 1691.51 561 1691.61 560.806L1692.4 560.444C1693.07 560.153 1693.79 559.889 1694.38 559.639C1696.93 558.686 1699.57 557.961 1702.25 557.472C1704.87 556.981 1707.5 556.574 1710.12 556.25C1712.75 555.931 1715.38 555.667 1718 555.611C1715.38 555.542 1712.72 555.292 1710.12 554.958Z" fill="white"/>
<path d="M1754.24 265.451C1753.6 265.451 1752.97 265.644 1752.44 266.005C1751.9 266.366 1751.49 266.878 1751.24 267.478C1751 268.078 1750.94 268.737 1751.06 269.373C1751.19 270.009 1751.5 270.592 1751.96 271.049C1752.41 271.506 1752.99 271.816 1753.62 271.94C1754.25 272.064 1754.91 271.995 1755.5 271.744C1756.09 271.492 1756.6 271.069 1756.95 270.528C1757.3 269.986 1757.49 269.351 1757.48 268.702C1757.48 268.273 1757.4 267.848 1757.24 267.452C1757.07 267.056 1756.83 266.697 1756.53 266.395C1756.23 266.093 1755.87 265.854 1755.48 265.692C1755.09 265.53 1754.67 265.448 1754.24 265.451ZM1754.24 246.968C1753.6 246.968 1752.97 247.16 1752.44 247.519C1751.91 247.879 1751.49 248.391 1751.25 248.989C1751 249.587 1750.94 250.246 1751.06 250.881C1751.19 251.516 1751.5 252.099 1751.95 252.557C1752.4 253.015 1752.98 253.327 1753.61 253.453C1754.24 253.58 1754.89 253.515 1755.48 253.267C1756.08 253.019 1756.58 252.6 1756.94 252.061C1757.29 251.523 1757.48 250.89 1757.48 250.242C1757.48 249.374 1757.14 248.541 1756.53 247.927C1755.93 247.313 1755.1 246.968 1754.24 246.968ZM1754.24 228.484C1753.6 228.484 1752.97 228.676 1752.44 229.036C1751.91 229.395 1751.49 229.907 1751.25 230.505C1751 231.103 1750.94 231.762 1751.06 232.397C1751.19 233.032 1751.5 233.616 1751.95 234.074C1752.4 234.531 1752.98 234.843 1753.61 234.97C1754.24 235.096 1754.89 235.031 1755.48 234.783C1756.08 234.536 1756.58 234.116 1756.94 233.577C1757.29 233.039 1757.48 232.406 1757.48 231.758C1757.48 230.89 1757.14 230.057 1756.53 229.443C1755.93 228.829 1755.1 228.484 1754.24 228.484ZM1754.24 210C1753.6 210 1752.97 210.192 1752.44 210.552C1751.91 210.912 1751.49 211.423 1751.25 212.021C1751 212.62 1750.94 213.278 1751.06 213.913C1751.19 214.548 1751.5 215.132 1751.95 215.59C1752.4 216.048 1752.98 216.36 1753.61 216.486C1754.24 216.612 1754.89 216.547 1755.48 216.3C1756.08 216.052 1756.58 215.632 1756.94 215.094C1757.29 214.555 1757.48 213.922 1757.48 213.274C1757.48 212.406 1757.14 211.573 1756.53 210.959C1755.93 210.345 1755.1 210 1754.24 210ZM1774.38 265.451C1773.73 265.447 1773.1 265.635 1772.57 265.993C1772.03 266.351 1771.61 266.862 1771.36 267.462C1771.11 268.061 1771.05 268.721 1771.17 269.359C1771.3 269.996 1771.61 270.582 1772.06 271.041C1772.52 271.5 1773.1 271.813 1773.73 271.938C1774.36 272.064 1775.01 271.997 1775.61 271.746C1776.2 271.495 1776.7 271.072 1777.06 270.53C1777.41 269.988 1777.6 269.352 1777.6 268.702C1777.6 267.84 1777.26 267.013 1776.65 266.403C1776.05 265.794 1775.23 265.451 1774.38 265.451ZM1774.38 246.968C1773.73 246.963 1773.11 247.151 1772.57 247.508C1772.03 247.865 1771.61 248.374 1771.36 248.972C1771.12 249.57 1771.05 250.229 1771.17 250.866C1771.29 251.503 1771.6 252.088 1772.05 252.549C1772.51 253.009 1773.08 253.323 1773.71 253.452C1774.34 253.58 1775 253.516 1775.59 253.269C1776.18 253.022 1776.69 252.603 1777.05 252.064C1777.41 251.525 1777.6 250.891 1777.6 250.242C1777.6 249.813 1777.52 249.388 1777.36 248.991C1777.2 248.594 1776.96 248.232 1776.66 247.928C1776.36 247.624 1776.01 247.382 1775.61 247.217C1775.22 247.052 1774.8 246.968 1774.38 246.968ZM1774.38 228.484C1773.73 228.479 1773.11 228.667 1772.57 229.024C1772.03 229.381 1771.61 229.891 1771.36 230.489C1771.12 231.087 1771.05 231.746 1771.17 232.382C1771.29 233.019 1771.6 233.605 1772.05 234.065C1772.51 234.525 1773.08 234.84 1773.71 234.968C1774.34 235.096 1775 235.033 1775.59 234.786C1776.18 234.538 1776.69 234.119 1777.05 233.58C1777.41 233.041 1777.6 232.407 1777.6 231.758C1777.6 231.329 1777.52 230.904 1777.36 230.507C1777.2 230.11 1776.96 229.749 1776.66 229.444C1776.36 229.14 1776.01 228.898 1775.61 228.734C1775.22 228.569 1774.8 228.484 1774.38 228.484ZM1774.38 210C1773.73 209.995 1773.11 210.183 1772.57 210.54C1772.03 210.897 1771.61 211.407 1771.36 212.005C1771.12 212.603 1771.05 213.262 1771.17 213.899C1771.29 214.535 1771.6 215.121 1772.05 215.581C1772.51 216.042 1773.08 216.356 1773.71 216.484C1774.34 216.612 1775 216.549 1775.59 216.302C1776.18 216.055 1776.69 215.635 1777.05 215.096C1777.41 214.557 1777.6 213.923 1777.6 213.274C1777.6 212.846 1777.52 212.42 1777.36 212.023C1777.2 211.626 1776.96 211.265 1776.66 210.961C1776.36 210.656 1776.01 210.415 1775.61 210.25C1775.22 210.085 1774.8 210 1774.38 210ZM1794.49 265.451C1793.85 265.451 1793.22 265.644 1792.68 266.005C1792.15 266.366 1791.74 266.878 1791.49 267.478C1791.25 268.078 1791.18 268.737 1791.31 269.373C1791.44 270.009 1791.75 270.592 1792.2 271.049C1792.66 271.506 1793.24 271.816 1793.87 271.94C1794.5 272.064 1795.15 271.995 1795.75 271.744C1796.34 271.492 1796.84 271.069 1797.2 270.528C1797.55 269.986 1797.74 269.351 1797.73 268.702C1797.73 268.273 1797.65 267.848 1797.48 267.452C1797.32 267.056 1797.08 266.697 1796.78 266.395C1796.48 266.093 1796.12 265.854 1795.73 265.692C1795.33 265.53 1794.91 265.448 1794.49 265.451ZM1794.49 246.968C1793.85 246.968 1793.22 247.16 1792.69 247.519C1792.15 247.879 1791.74 248.391 1791.49 248.989C1791.25 249.587 1791.18 250.246 1791.31 250.881C1791.43 251.516 1791.74 252.099 1792.2 252.557C1792.65 253.015 1793.23 253.327 1793.86 253.453C1794.48 253.58 1795.14 253.515 1795.73 253.267C1796.32 253.019 1796.83 252.6 1797.18 252.061C1797.54 251.523 1797.73 250.89 1797.73 250.242C1797.73 249.374 1797.39 248.541 1796.78 247.927C1796.17 247.313 1795.35 246.968 1794.49 246.968ZM1794.49 228.484C1793.85 228.484 1793.22 228.676 1792.69 229.036C1792.15 229.395 1791.74 229.907 1791.49 230.505C1791.25 231.103 1791.18 231.762 1791.31 232.397C1791.43 233.032 1791.74 233.616 1792.2 234.074C1792.65 234.531 1793.23 234.843 1793.86 234.97C1794.48 235.096 1795.14 235.031 1795.73 234.783C1796.32 234.536 1796.83 234.116 1797.18 233.577C1797.54 233.039 1797.73 232.406 1797.73 231.758C1797.73 231.328 1797.65 230.902 1797.48 230.505C1797.32 230.108 1797.08 229.747 1796.78 229.443C1796.48 229.139 1796.12 228.898 1795.73 228.733C1795.34 228.568 1794.91 228.484 1794.49 228.484ZM1794.49 210C1793.85 210 1793.22 210.192 1792.69 210.552C1792.15 210.912 1791.74 211.423 1791.49 212.021C1791.25 212.62 1791.18 213.278 1791.31 213.913C1791.43 214.548 1791.74 215.132 1792.2 215.59C1792.65 216.048 1793.23 216.36 1793.86 216.486C1794.48 216.612 1795.14 216.547 1795.73 216.3C1796.32 216.052 1796.83 215.632 1797.18 215.094C1797.54 214.555 1797.73 213.922 1797.73 213.274C1797.73 212.844 1797.65 212.419 1797.48 212.021C1797.32 211.624 1797.08 211.263 1796.78 210.959C1796.48 210.655 1796.12 210.414 1795.73 210.249C1795.34 210.085 1794.91 210 1794.49 210ZM1814.62 265.451C1813.98 265.447 1813.35 265.635 1812.81 265.993C1812.28 266.351 1811.86 266.862 1811.61 267.462C1811.36 268.061 1811.29 268.721 1811.42 269.359C1811.54 269.996 1811.85 270.582 1812.31 271.041C1812.76 271.5 1813.34 271.813 1813.97 271.938C1814.6 272.064 1815.26 271.997 1815.85 271.746C1816.44 271.495 1816.95 271.072 1817.31 270.53C1817.66 269.988 1817.85 269.352 1817.84 268.702C1817.84 268.275 1817.76 267.852 1817.6 267.458C1817.44 267.063 1817.2 266.705 1816.9 266.403C1816.6 266.101 1816.25 265.862 1815.85 265.699C1815.46 265.535 1815.05 265.451 1814.62 265.451ZM1814.62 246.968C1813.98 246.963 1813.35 247.151 1812.82 247.508C1812.28 247.865 1811.86 248.374 1811.61 248.972C1811.36 249.57 1811.29 250.229 1811.42 250.866C1811.54 251.503 1811.85 252.088 1812.3 252.549C1812.75 253.009 1813.33 253.323 1813.96 253.452C1814.59 253.58 1815.24 253.516 1815.83 253.269C1816.43 253.022 1816.94 252.603 1817.29 252.064C1817.65 251.525 1817.84 250.891 1817.84 250.242C1817.84 249.378 1817.5 248.548 1816.9 247.935C1816.3 247.322 1815.48 246.974 1814.62 246.968ZM1814.62 228.484C1813.98 228.479 1813.35 228.667 1812.82 229.024C1812.28 229.381 1811.86 229.891 1811.61 230.489C1811.36 231.087 1811.29 231.746 1811.42 232.382C1811.54 233.019 1811.85 233.605 1812.3 234.065C1812.75 234.525 1813.33 234.84 1813.96 234.968C1814.59 235.096 1815.24 235.033 1815.83 234.786C1816.43 234.538 1816.94 234.119 1817.29 233.58C1817.65 233.041 1817.84 232.407 1817.84 231.758C1817.84 230.894 1817.5 230.065 1816.9 229.451C1816.3 228.838 1815.48 228.49 1814.62 228.484ZM1814.62 210C1813.98 209.995 1813.35 210.183 1812.82 210.54C1812.28 210.897 1811.86 211.407 1811.61 212.005C1811.36 212.603 1811.29 213.262 1811.42 213.899C1811.54 214.535 1811.85 215.121 1812.3 215.581C1812.75 216.042 1813.33 216.356 1813.96 216.484C1814.59 216.612 1815.24 216.549 1815.83 216.302C1816.43 216.055 1816.94 215.635 1817.29 215.096C1817.65 214.557 1817.84 213.923 1817.84 213.274C1817.84 212.41 1817.5 211.581 1816.9 210.967C1816.3 210.354 1815.48 210.006 1814.62 210ZM1834.73 265.451C1834.09 265.447 1833.46 265.635 1832.92 265.993C1832.39 266.351 1831.97 266.862 1831.72 267.462C1831.47 268.061 1831.41 268.721 1831.53 269.359C1831.65 269.996 1831.96 270.582 1832.42 271.041C1832.87 271.5 1833.45 271.813 1834.08 271.938C1834.72 272.064 1835.37 271.997 1835.96 271.746C1836.56 271.495 1837.06 271.072 1837.42 270.53C1837.77 269.988 1837.96 269.352 1837.95 268.702C1837.95 268.275 1837.87 267.852 1837.71 267.458C1837.55 267.063 1837.31 266.705 1837.01 266.403C1836.71 266.101 1836.36 265.862 1835.97 265.699C1835.58 265.535 1835.16 265.451 1834.73 265.451ZM1834.73 246.968C1834.09 246.963 1833.46 247.151 1832.93 247.508C1832.39 247.865 1831.97 248.374 1831.72 248.972C1831.47 249.57 1831.41 250.229 1831.53 250.866C1831.65 251.503 1831.96 252.088 1832.41 252.549C1832.86 253.009 1833.44 253.323 1834.07 253.452C1834.7 253.58 1835.35 253.516 1835.95 253.269C1836.54 253.022 1837.05 252.603 1837.41 252.064C1837.76 251.525 1837.95 250.891 1837.95 250.242C1837.96 249.813 1837.88 249.388 1837.71 248.991C1837.55 248.594 1837.32 248.232 1837.02 247.928C1836.72 247.624 1836.36 247.382 1835.97 247.217C1835.58 247.052 1835.16 246.968 1834.73 246.968ZM1834.73 228.484C1834.09 228.479 1833.46 228.667 1832.93 229.024C1832.39 229.381 1831.97 229.891 1831.72 230.489C1831.47 231.087 1831.41 231.746 1831.53 232.382C1831.65 233.019 1831.96 233.605 1832.41 234.065C1832.86 234.525 1833.44 234.84 1834.07 234.968C1834.7 235.096 1835.35 235.033 1835.95 234.786C1836.54 234.538 1837.05 234.119 1837.41 233.58C1837.76 233.041 1837.95 232.407 1837.95 231.758C1837.96 231.329 1837.88 230.904 1837.71 230.507C1837.55 230.11 1837.32 229.749 1837.02 229.444C1836.72 229.14 1836.36 228.898 1835.97 228.734C1835.58 228.569 1835.16 228.484 1834.73 228.484ZM1834.73 216.62C1835.38 216.625 1836.01 216.436 1836.54 216.078C1837.08 215.72 1837.5 215.209 1837.75 214.61C1838 214.01 1838.06 213.35 1837.94 212.713C1837.81 212.075 1837.51 211.49 1837.05 211.03C1836.6 210.571 1836.02 210.259 1835.38 210.133C1834.75 210.008 1834.1 210.074 1833.51 210.325C1832.91 210.576 1832.41 210.999 1832.05 211.541C1831.7 212.084 1831.51 212.72 1831.52 213.369C1831.54 214.215 1831.89 215.018 1832.49 215.607C1833.09 216.196 1833.9 216.526 1834.73 216.525V216.62Z" fill="white"/>
<circle cx="1764.5" cy="875.5" r="16.5" stroke="#CE43FF" stroke-width="12"/>
<circle cx="922.5" cy="85.5" r="10.5" stroke="#FFDA00" stroke-width="8"/>
<path d="M1006.93 806.503C1006.93 806.998 1007.08 807.481 1007.36 807.892C1007.64 808.303 1008.03 808.623 1008.5 808.812C1008.96 809 1009.47 809.048 1009.97 808.951C1010.46 808.853 1010.91 808.613 1011.26 808.262C1011.62 807.911 1011.86 807.465 1011.95 806.979C1012.05 806.493 1012 805.991 1011.8 805.535C1011.61 805.079 1011.28 804.69 1010.86 804.418C1010.44 804.146 1009.95 804.003 1009.45 804.006C1009.11 804.006 1008.79 804.071 1008.48 804.197C1008.17 804.322 1007.89 804.506 1007.66 804.739C1007.43 804.971 1007.24 805.246 1007.12 805.549C1006.99 805.852 1006.93 806.176 1006.93 806.503ZM992.62 806.503C992.62 806.997 992.769 807.48 993.047 807.89C993.326 808.301 993.722 808.621 994.185 808.81C994.648 808.999 995.158 809.048 995.65 808.952C996.141 808.856 996.593 808.618 996.948 808.269C997.302 807.919 997.544 807.475 997.641 806.99C997.739 806.506 997.689 806.004 997.497 805.548C997.305 805.091 996.98 804.701 996.563 804.427C996.147 804.153 995.656 804.006 995.155 804.006C994.483 804.006 993.838 804.269 993.363 804.738C992.887 805.206 992.62 805.841 992.62 806.503ZM978.31 806.503C978.31 806.997 978.459 807.48 978.737 807.89C979.016 808.301 979.412 808.621 979.875 808.81C980.338 808.999 980.848 809.048 981.34 808.952C981.831 808.856 982.283 808.618 982.638 808.269C982.992 807.919 983.234 807.475 983.331 806.99C983.429 806.506 983.379 806.004 983.187 805.548C982.995 805.091 982.67 804.701 982.253 804.427C981.837 804.153 981.346 804.006 980.845 804.006C980.173 804.006 979.528 804.269 979.053 804.738C978.577 805.206 978.31 805.841 978.31 806.503ZM964 806.503C964 806.997 964.149 807.48 964.427 807.89C964.706 808.301 965.102 808.621 965.565 808.81C966.028 808.999 966.538 809.048 967.03 808.952C967.521 808.856 967.973 808.618 968.328 808.269C968.682 807.919 968.924 807.475 969.021 806.99C969.119 806.506 969.069 806.004 968.877 805.548C968.685 805.091 968.36 804.701 967.943 804.427C967.527 804.153 967.036 804.006 966.535 804.006C965.863 804.006 965.218 804.269 964.743 804.738C964.267 805.206 964 805.841 964 806.503ZM1006.93 790.997C1006.93 791.492 1007.07 791.978 1007.35 792.391C1007.63 792.804 1008.02 793.127 1008.49 793.318C1008.95 793.51 1009.46 793.561 1009.95 793.465C1010.45 793.369 1010.9 793.131 1011.26 792.781C1011.61 792.43 1011.85 791.984 1011.95 791.498C1012.05 791.012 1012 790.508 1011.8 790.051C1011.61 789.594 1011.28 789.204 1010.86 788.931C1010.44 788.658 1009.95 788.515 1009.45 788.518C1008.78 788.518 1008.14 788.779 1007.67 789.244C1007.2 789.709 1006.93 790.34 1006.93 790.997ZM992.62 790.997C992.616 791.492 992.762 791.976 993.038 792.389C993.315 792.802 993.709 793.125 994.172 793.317C994.635 793.508 995.145 793.56 995.638 793.466C996.131 793.372 996.585 793.136 996.941 792.787C997.297 792.439 997.541 791.994 997.64 791.509C997.739 791.024 997.69 790.521 997.499 790.064C997.308 789.606 996.983 789.215 996.565 788.94C996.148 788.665 995.657 788.518 995.155 788.518C994.823 788.516 994.494 788.578 994.186 788.702C993.879 788.825 993.599 789.007 993.364 789.238C993.128 789.468 992.941 789.742 992.813 790.044C992.686 790.346 992.62 790.67 992.62 790.997ZM978.31 790.997C978.306 791.492 978.452 791.976 978.728 792.389C979.005 792.802 979.399 793.125 979.862 793.317C980.325 793.508 980.835 793.56 981.328 793.466C981.821 793.372 982.275 793.136 982.631 792.787C982.987 792.439 983.231 791.994 983.33 791.509C983.429 791.024 983.38 790.521 983.189 790.064C982.997 789.606 982.673 789.215 982.255 788.94C981.838 788.665 981.347 788.518 980.845 788.518C980.513 788.516 980.184 788.578 979.876 788.702C979.569 788.825 979.289 789.007 979.054 789.238C978.818 789.468 978.631 789.742 978.503 790.044C978.376 790.346 978.31 790.67 978.31 790.997ZM964 790.997C963.996 791.492 964.142 791.976 964.418 792.389C964.695 792.802 965.089 793.125 965.552 793.317C966.015 793.508 966.525 793.56 967.018 793.466C967.511 793.372 967.965 793.136 968.321 792.787C968.677 792.439 968.921 791.994 969.02 791.509C969.119 791.024 969.07 790.521 968.879 790.064C968.688 789.606 968.363 789.215 967.945 788.94C967.528 788.665 967.037 788.518 966.535 788.518C966.203 788.516 965.874 788.578 965.566 788.702C965.259 788.825 964.979 789.007 964.744 789.238C964.508 789.468 964.321 789.742 964.193 790.044C964.066 790.346 964 790.67 964 790.997ZM1006.93 775.509C1006.93 776.004 1007.08 776.487 1007.36 776.898C1007.64 777.309 1008.03 777.629 1008.5 777.818C1008.96 778.006 1009.47 778.054 1009.97 777.957C1010.46 777.859 1010.91 777.619 1011.26 777.268C1011.62 776.917 1011.86 776.47 1011.95 775.985C1012.05 775.499 1012 774.997 1011.8 774.541C1011.61 774.085 1011.28 773.696 1010.86 773.424C1010.44 773.152 1009.95 773.009 1009.45 773.012C1009.11 773.012 1008.79 773.077 1008.48 773.203C1008.17 773.328 1007.89 773.512 1007.66 773.744C1007.43 773.977 1007.24 774.252 1007.12 774.555C1006.99 774.858 1006.93 775.182 1006.93 775.509ZM992.62 775.509C992.62 776.003 992.769 776.486 993.047 776.896C993.326 777.307 993.722 777.627 994.185 777.816C994.648 778.005 995.158 778.054 995.65 777.958C996.141 777.862 996.593 777.624 996.948 777.275C997.302 776.925 997.544 776.48 997.641 775.996C997.739 775.512 997.689 775.01 997.497 774.553C997.305 774.097 996.98 773.707 996.563 773.433C996.147 773.159 995.656 773.012 995.155 773.012C994.483 773.012 993.838 773.275 993.363 773.743C992.887 774.212 992.62 774.847 992.62 775.509ZM978.31 775.509C978.31 776.003 978.459 776.486 978.737 776.896C979.016 777.307 979.412 777.627 979.875 777.816C980.338 778.005 980.848 778.054 981.34 777.958C981.831 777.862 982.283 777.624 982.638 777.275C982.992 776.925 983.234 776.48 983.331 775.996C983.429 775.512 983.379 775.01 983.187 774.553C982.995 774.097 982.67 773.707 982.253 773.433C981.837 773.159 981.346 773.012 980.845 773.012C980.512 773.012 980.183 773.077 979.875 773.202C979.567 773.328 979.288 773.512 979.053 773.743C978.817 773.975 978.63 774.251 978.503 774.553C978.376 774.856 978.31 775.181 978.31 775.509ZM964 775.509C964 776.003 964.149 776.486 964.427 776.896C964.706 777.307 965.102 777.627 965.565 777.816C966.028 778.005 966.538 778.054 967.03 777.958C967.521 777.862 967.973 777.624 968.328 777.275C968.682 776.925 968.924 776.48 969.021 775.996C969.119 775.512 969.069 775.01 968.877 774.553C968.685 774.097 968.36 773.707 967.943 773.433C967.527 773.159 967.036 773.012 966.535 773.012C966.202 773.012 965.873 773.077 965.565 773.202C965.257 773.328 964.978 773.512 964.743 773.743C964.507 773.975 964.32 774.251 964.193 774.553C964.066 774.856 964 775.181 964 775.509ZM1006.93 760.003C1006.93 760.498 1007.07 760.984 1007.35 761.397C1007.63 761.81 1008.02 762.133 1008.49 762.324C1008.95 762.516 1009.46 762.567 1009.95 762.471C1010.45 762.375 1010.9 762.137 1011.26 761.787C1011.61 761.436 1011.85 760.99 1011.95 760.504C1012.05 760.018 1012 759.514 1011.8 759.057C1011.61 758.6 1011.28 758.21 1010.86 757.937C1010.44 757.664 1009.95 757.521 1009.45 757.524C1009.12 757.524 1008.79 757.588 1008.48 757.713C1008.18 757.837 1007.9 758.02 1007.67 758.25C1007.43 758.48 1007.25 758.754 1007.12 759.054C1007 759.355 1006.93 759.677 1006.93 760.003ZM992.62 760.003C992.616 760.497 992.762 760.982 993.038 761.395C993.315 761.808 993.709 762.131 994.172 762.323C994.635 762.514 995.145 762.566 995.638 762.472C996.131 762.378 996.585 762.141 996.941 761.793C997.297 761.445 997.541 761 997.64 760.515C997.739 760.03 997.69 759.527 997.499 759.07C997.308 758.612 996.983 758.221 996.565 757.946C996.148 757.671 995.657 757.524 995.155 757.524C994.486 757.524 993.844 757.785 993.369 758.249C992.894 758.713 992.625 759.344 992.62 760.003ZM978.31 760.003C978.306 760.497 978.452 760.982 978.728 761.395C979.005 761.808 979.399 762.131 979.862 762.323C980.325 762.514 980.835 762.566 981.328 762.472C981.821 762.378 982.275 762.141 982.631 761.793C982.987 761.445 983.231 761 983.33 760.515C983.429 760.03 983.38 759.527 983.189 759.07C982.997 758.612 982.673 758.221 982.255 757.946C981.838 757.671 981.347 757.524 980.845 757.524C980.176 757.524 979.534 757.785 979.059 758.249C978.584 758.713 978.315 759.344 978.31 760.003ZM964 760.003C963.996 760.497 964.142 760.982 964.418 761.395C964.695 761.808 965.089 762.131 965.552 762.323C966.015 762.514 966.525 762.566 967.018 762.472C967.511 762.378 967.965 762.141 968.321 761.793C968.677 761.445 968.921 761 969.02 760.515C969.119 760.03 969.07 759.527 968.879 759.07C968.688 758.612 968.363 758.221 967.945 757.946C967.528 757.671 967.037 757.524 966.535 757.524C965.866 757.524 965.224 757.785 964.749 758.249C964.274 758.713 964.005 759.344 964 760.003ZM1006.93 744.515C1006.93 745.01 1007.07 745.496 1007.35 745.909C1007.63 746.322 1008.02 746.645 1008.49 746.836C1008.95 747.028 1009.46 747.079 1009.95 746.983C1010.45 746.887 1010.9 746.649 1011.26 746.299C1011.61 745.948 1011.85 745.502 1011.95 745.016C1012.05 744.53 1012 744.026 1011.8 743.569C1011.61 743.112 1011.28 742.722 1010.86 742.449C1010.44 742.176 1009.95 742.033 1009.45 742.036C1009.12 742.036 1008.79 742.1 1008.48 742.225C1008.18 742.349 1007.9 742.532 1007.67 742.762C1007.43 742.992 1007.25 743.266 1007.12 743.566C1007 743.867 1006.93 744.189 1006.93 744.515ZM992.62 744.515C992.616 745.009 992.762 745.494 993.038 745.907C993.315 746.32 993.709 746.643 994.172 746.835C994.635 747.026 995.145 747.078 995.638 746.984C996.131 746.89 996.585 746.653 996.941 746.305C997.297 745.957 997.541 745.512 997.64 745.027C997.739 744.542 997.69 744.039 997.499 743.582C997.308 743.124 996.983 742.733 996.565 742.458C996.148 742.183 995.657 742.036 995.155 742.036C994.823 742.034 994.494 742.096 994.186 742.22C993.879 742.343 993.599 742.525 993.364 742.756C993.128 742.986 992.941 743.26 992.813 743.562C992.686 743.864 992.62 744.188 992.62 744.515ZM978.31 744.515C978.306 745.009 978.452 745.494 978.728 745.907C979.005 746.32 979.399 746.643 979.862 746.835C980.325 747.026 980.835 747.078 981.328 746.984C981.821 746.89 982.275 746.653 982.631 746.305C982.987 745.957 983.231 745.512 983.33 745.027C983.429 744.542 983.38 744.039 983.189 743.582C982.997 743.124 982.673 742.733 982.255 742.458C981.838 742.183 981.347 742.036 980.845 742.036C980.513 742.034 980.184 742.096 979.876 742.22C979.569 742.343 979.289 742.525 979.054 742.756C978.818 742.986 978.631 743.26 978.503 743.562C978.376 743.864 978.31 744.188 978.31 744.515ZM969.125 744.515C969.129 744.02 968.983 743.534 968.706 743.121C968.428 742.708 968.033 742.385 967.569 742.194C967.105 742.002 966.594 741.951 966.1 742.047C965.607 742.143 965.153 742.381 964.798 742.731C964.442 743.082 964.2 743.528 964.103 744.014C964.006 744.5 964.058 745.004 964.252 745.461C964.446 745.918 964.774 746.307 965.193 746.58C965.613 746.853 966.106 746.997 966.609 746.994C967.263 746.975 967.885 746.705 968.341 746.243C968.797 745.78 969.052 745.16 969.052 744.515H969.125Z" fill="#FFDA00"/>
</svg>
