<svg width="95" height="93" viewBox="0 0 95 93" fill="none" xmlns="http://www.w3.org/2000/svg">
<g id="Icon">
<path id="BG" d="M65.3958 66.4511C49.1516 81.0729 24.1297 79.7577 9.50787 63.5135C-5.11398 47.2693 14.6534 42.7469 30.8976 28.1251C47.1418 13.5032 53.7115 -5.68108 68.3334 10.5631C82.9552 26.8073 81.64 51.8292 65.3958 66.4511Z" fill="#0AA89D"/>
<g id="Group">
<path id="Vector" d="M33.9935 51.9963C33.9935 51.9963 34.224 52.9562 33.899 54.2524C33.5778 55.5486 32.7199 57.3361 30.3731 59.2143C30.2535 59.3062 30.1571 59.4248 30.0914 59.5606C30.0258 59.6964 29.9929 59.8457 29.9952 59.9966H49.994C49.9963 59.8457 49.9634 59.6964 49.8978 59.5606C49.8322 59.4248 49.7357 59.3062 49.6161 59.2143C47.2655 57.3361 46.4114 55.5486 46.0864 54.2524C45.7614 52.9562 45.992 51.9963 45.992 51.9963H33.9935Z" fill="#2FA9DA"/>
<path id="Vector_2" d="M12.9968 11.0011C12.2022 11.0061 11.4417 11.3245 10.8806 11.887C10.3194 12.4496 10.003 13.2109 10 14.0055V50.0009C10 51.6448 11.3529 52.9977 12.9968 52.9977H66.9919C67.7865 52.9948 68.5478 52.6783 69.1103 52.1172C69.6729 51.556 69.9913 50.7955 69.9962 50.0009V14.0055C69.9913 13.2102 69.6731 12.4489 69.1108 11.8866C68.5484 11.3242 67.7872 11.0061 66.9919 11.0011H12.9968Z" fill="#33B9EF"/>
<path id="Vector_3" d="M12.9978 13.0003H66.9929C67.1258 12.9971 67.2579 13.021 67.3812 13.0704C67.5046 13.1199 67.6166 13.1938 67.7106 13.2878C67.8046 13.3817 67.8785 13.4938 67.9279 13.6172C67.9774 13.7405 68.0012 13.8726 67.9981 14.0055V42.9984H11.9964V14.0055C11.9933 13.8729 12.017 13.7412 12.0662 13.6181C12.1154 13.495 12.189 13.3831 12.2826 13.2892C12.3761 13.1952 12.4877 13.1212 12.6107 13.0716C12.7336 13.0219 12.8653 12.9977 12.9978 13.0003Z" fill="#DBE9EE"/>
<path id="Vector_4" d="M28.9948 58.9989C28.2013 59.0028 27.4413 59.3199 26.8802 59.881C26.319 60.4421 26.002 61.2021 25.998 61.9957V63.9986C25.998 64.2629 26.1025 64.5164 26.2887 64.704C26.4749 64.8916 26.7276 64.998 26.9919 65H52.9956C53.1271 64.9995 53.2572 64.9731 53.3785 64.9223C53.4999 64.8715 53.61 64.7974 53.7026 64.704C53.7953 64.6107 53.8686 64.5 53.9185 64.3783C53.9683 64.2566 53.9938 64.1263 53.9933 63.9948V61.9919C53.9883 61.199 53.6709 60.44 53.1098 59.8797C52.5488 59.3193 51.7894 59.0028 50.9965 58.9989H28.9948Z" fill="#33B9EF"/>
<path id="Vector_5" d="M37.9936 46.9966C37.728 46.9966 37.4733 47.1021 37.2855 47.2899C37.0977 47.4778 36.9922 47.7325 36.9922 47.9981C36.9922 48.2637 37.0977 48.5184 37.2855 48.7062C37.4733 48.894 37.728 48.9995 37.9936 48.9995H41.9881C42.2537 48.9995 42.5084 48.894 42.6962 48.7062C42.884 48.5184 42.9895 48.2637 42.9895 47.9981C42.9895 47.7325 42.884 47.4778 42.6962 47.2899C42.5084 47.1021 42.2537 46.9966 41.9881 46.9966H37.9936Z" fill="#DBE9EE"/>
<path id="Vector_6" d="M20.9978 5.0038C20.2042 5.00777 19.4443 5.32478 18.8831 5.88593C18.322 6.44708 18.0049 7.20701 18.001 8.00059V42.9984H61.9891V8.00437C61.9862 7.21079 61.6701 6.45045 61.1097 5.88859C60.5492 5.32674 59.7897 5.00877 58.9961 5.0038H20.9978Z" fill="#FFBC42"/>
<path id="Vector_7" d="M20.9978 5.00378C20.2042 5.00775 19.4443 5.32476 18.8831 5.88591C18.322 6.44706 18.0049 7.20699 18.001 8.00057V15.0031H61.9891V7.99679C61.9852 7.20387 61.6687 6.44449 61.1084 5.88345C60.548 5.32241 59.789 5.00496 58.9961 5L20.9978 5.00378Z" fill="#FF6B6B"/>
<g id="Group_2">
<path id="Vector_8" d="M44.8974 9.00581C44.6391 9.02808 44.3996 9.14962 44.2291 9.34485C44.0586 9.54009 43.9705 9.79383 43.9832 10.0527C43.9959 10.3116 44.1085 10.5555 44.2973 10.733C44.4861 10.9106 44.7364 11.0081 44.9956 11.0049H56.9941C57.1256 11.0049 57.2559 10.979 57.3774 10.9287C57.4989 10.8784 57.6093 10.8046 57.7023 10.7116C57.7952 10.6186 57.869 10.5082 57.9193 10.3867C57.9697 10.2652 57.9956 10.135 57.9956 10.0035C57.9956 9.87197 57.9697 9.74174 57.9193 9.62024C57.869 9.49874 57.7952 9.38834 57.7023 9.29535C57.6093 9.20235 57.4989 9.12859 57.3774 9.07826C57.2559 9.02793 57.1256 9.00203 56.9941 9.00203H44.9994C44.9667 9.00042 44.9339 9.00042 44.9012 9.00203L44.8974 9.00581ZM31.973 22.9996C31.7484 23.0068 31.5328 23.0894 31.3608 23.2339L25.3597 28.2374C25.2477 28.3314 25.1576 28.4488 25.0958 28.5813C25.034 28.7139 25.002 28.8583 25.002 29.0046C25.002 29.1508 25.034 29.2952 25.0958 29.4278C25.1576 29.5603 25.2477 29.6777 25.3597 29.7717L31.3608 34.7714C31.4605 34.8648 31.5781 34.9368 31.7066 34.983C31.8352 35.0292 31.9718 35.0487 32.108 35.0402C32.2443 35.0316 32.3775 34.9953 32.4992 34.9335C32.621 34.8716 32.7288 34.7855 32.816 34.6805C32.9033 34.5754 32.9681 34.4536 33.0065 34.3226C33.045 34.1915 33.0562 34.054 33.0396 33.9185C33.0229 33.7829 32.9787 33.6522 32.9097 33.5344C32.8406 33.4166 32.7482 33.3141 32.6381 33.2333L27.5591 29.0083L32.6419 24.7758C32.8039 24.6433 32.9203 24.4634 32.9748 24.2614C33.0293 24.0594 33.0191 23.8454 32.9457 23.6494C32.8724 23.4535 32.7394 23.2854 32.5657 23.1689C32.3919 23.0523 32.1822 22.9931 31.973 22.9996ZM47.8942 22.9996C47.6976 23.0196 47.5113 23.0972 47.3588 23.2227C47.2062 23.3483 47.0942 23.5162 47.0368 23.7052C46.9795 23.8943 46.9793 24.0961 47.0364 24.2852C47.0934 24.4744 47.2052 24.6424 47.3575 24.7682L52.4328 29.0046L47.3575 33.2409C47.2506 33.3232 47.1615 33.4263 47.0955 33.544C47.0294 33.6617 46.9878 33.7915 46.9732 33.9256C46.9586 34.0598 46.9712 34.1955 47.0104 34.3246C47.0495 34.4538 47.1144 34.5737 47.201 34.6771C47.2876 34.7806 47.3943 34.8654 47.5145 34.9267C47.6348 34.9879 47.7662 35.0241 47.9008 35.0333C48.0354 35.0424 48.1705 35.0243 48.298 34.9799C48.4254 34.9356 48.5426 34.8659 48.6424 34.7752L54.6322 29.7755C54.7442 29.6815 54.8343 29.5641 54.8961 29.4316C54.9579 29.299 54.9899 29.1546 54.9899 29.0083C54.9899 28.8621 54.9579 28.7176 54.8961 28.5851C54.8343 28.4526 54.7442 28.3352 54.6322 28.2412L48.6424 23.2377C48.5402 23.1497 48.4212 23.0832 48.2926 23.0423C48.164 23.0014 48.0285 22.9869 47.8942 22.9996ZM43.0078 18.9901C42.7942 18.989 42.5858 19.0562 42.4131 19.182C42.2404 19.3078 42.1125 19.4855 42.048 19.6892L36.0468 37.685C35.9975 37.8114 35.9744 37.9465 35.9789 38.082C35.9834 38.2176 36.0154 38.3508 36.0729 38.4737C36.1304 38.5965 36.2123 38.7064 36.3136 38.7966C36.4148 38.8868 36.5334 38.9556 36.662 38.9986C36.7906 39.0416 36.9267 39.0581 37.0618 39.047C37.197 39.0359 37.3285 38.9974 37.4484 38.934C37.5683 38.8705 37.674 38.7834 37.7592 38.6778C37.8444 38.5723 37.9072 38.4505 37.9439 38.3199L43.9451 20.3203C43.9973 20.1701 44.013 20.0096 43.9908 19.8521C43.9687 19.6946 43.9094 19.5447 43.8178 19.4147C43.7262 19.2847 43.605 19.1784 43.4641 19.1045C43.3233 19.0307 43.1669 18.9914 43.0078 18.9901Z" fill="#DBE9EE"/>
</g>
<path id="Vector_9" d="M22.9957 9.00578C22.8647 9.00578 22.735 9.03159 22.6139 9.08173C22.4929 9.13186 22.3829 9.20535 22.2903 9.29799C22.1976 9.39064 22.1241 9.50062 22.074 9.62166C22.0239 9.7427 21.998 9.87244 21.998 10.0035C21.998 10.1345 22.0239 10.2642 22.074 10.3852C22.1241 10.5063 22.1976 10.6163 22.2903 10.7089C22.3829 10.8016 22.4929 10.875 22.6139 10.9252C22.735 10.9753 22.8647 11.0011 22.9957 11.0011C23.1267 11.0011 23.2565 10.9753 23.3775 10.9252C23.4986 10.875 23.6085 10.8016 23.7012 10.7089C23.7938 10.6163 23.8673 10.5063 23.9174 10.3852C23.9676 10.2642 23.9934 10.1345 23.9934 10.0035C23.9934 9.87244 23.9676 9.7427 23.9174 9.62166C23.8673 9.50062 23.7938 9.39064 23.7012 9.29799C23.6085 9.20535 23.4986 9.13186 23.3775 9.08173C23.2565 9.03159 23.1267 9.00578 22.9957 9.00578ZM27.0015 9.00578C26.7369 9.00578 26.4832 9.11089 26.2961 9.29799C26.109 9.48509 26.0038 9.73885 26.0038 10.0035C26.0038 10.2674 26.1084 10.5206 26.2947 10.7076C26.481 10.8946 26.7338 11.0001 26.9977 11.0011C27.2623 11.0011 27.5161 10.896 27.7032 10.7089C27.8903 10.5218 27.9954 10.2681 27.9954 10.0035C27.9954 9.73885 27.8903 9.48509 27.7032 9.29799C27.5161 9.11089 27.2661 9.00578 27.0015 9.00578ZM30.996 9.00578C30.732 9.00678 30.4792 9.11234 30.293 9.29933C30.1067 9.48632 30.0021 9.73951 30.0021 10.0035C30.0021 10.2674 30.1067 10.5206 30.293 10.7076C30.4792 10.8946 30.732 11.0001 30.996 11.0011C31.2606 11.0011 31.5143 10.896 31.7014 10.7089C31.8885 10.5218 31.9936 10.2681 31.9936 10.0035C31.9936 9.73885 31.8885 9.48509 31.7014 9.29799C31.5143 9.11089 31.2606 9.00578 30.996 9.00578Z" fill="#FFA0A0"/>
</g>
</g>
</svg>
