<svg width="95" height="93" viewBox="0 0 95 93" fill="none" xmlns="http://www.w3.org/2000/svg">
<g id="Icon">
<path id="BG" d="M65.3958 66.4511C49.1516 81.0729 24.1297 79.7577 9.50787 63.5135C-5.11398 47.2693 14.6534 42.7469 30.8976 28.1251C47.1418 13.5032 53.7115 -5.68108 68.3334 10.5631C82.9552 26.8073 81.64 51.8292 65.3958 66.4511Z" fill="#0AA89D"/>
<g id="Group">
<path id="Vector" d="M29.0254 54.0254H41.5802V60.0232H29.0254V54.0254Z" fill="#6E61B6"/>
<path id="Vector_2" d="M29.0254 54.0254H33.5306V60.0232H29.0254V54.0254Z" fill="#6354B1"/>
<path id="Vector_3" d="M45.1793 59.8904H25.4251C23.7044 59.8904 22.3096 61.2854 22.3096 63.006V64.6016C22.3096 64.7072 22.3515 64.8085 22.4262 64.8832C22.5009 64.9579 22.6022 64.9999 22.7079 64.9999H47.8966C47.9489 64.9999 48.0007 64.9896 48.049 64.9695C48.0973 64.9495 48.1412 64.9202 48.1782 64.8832C48.2152 64.8462 48.2445 64.8023 48.2645 64.754C48.2846 64.7057 48.2949 64.6539 48.2949 64.6016V63.006C48.2949 61.2854 46.9001 59.8904 45.1793 59.8904Z" fill="#54469C"/>
<path id="Vector_4" d="M28.9957 64.6017V63.0061C28.9957 61.2854 30.3906 59.8906 32.1113 59.8906H25.4251C23.7044 59.8906 22.3096 61.2855 22.3096 63.0061V64.6017C22.3096 64.7073 22.3515 64.8086 22.4262 64.8833C22.5009 64.958 22.6022 65 22.7079 65H29.394C29.2884 65 29.1871 64.958 29.1124 64.8833C29.0377 64.8086 28.9957 64.7073 28.9957 64.6017Z" fill="#463B84"/>
<path id="Vector_5" d="M62.7729 43.2784V22.5207H53.3444C53.2031 22.5205 53.0676 22.4643 52.9676 22.3643C52.8677 22.2644 52.8115 22.1289 52.8114 21.9875V14.7552H8.9726C8.34316 14.7552 7.83105 15.2674 7.83105 15.8968V44.6687H60.9475C61.4744 44.1069 62.0913 43.637 62.7729 43.2784Z" fill="#EAF6FF"/>
<path id="Vector_6" d="M14.5939 14.7552H8.9726C8.34316 14.7552 7.83105 15.2674 7.83105 15.8968V44.6687H13.4524V15.8968C13.4524 15.2674 13.9646 14.7552 14.5939 14.7552Z" fill="#D8ECFE"/>
<path id="Vector_7" d="M7.96191 40.6205H11.4264C11.5136 40.6205 11.6 40.6033 11.6805 40.5699C11.7611 40.5366 11.8343 40.4876 11.8959 40.426C11.9575 40.3643 12.0064 40.2911 12.0398 40.2106C12.0731 40.13 12.0903 40.0437 12.0903 39.9565V23.832H7.96191V40.6205Z" fill="#6E61B6"/>
<path id="Vector_8" d="M11.4264 19.4525H7.96191V23.832H12.0904V20.1163C12.0904 19.9403 12.0204 19.7714 11.8959 19.6469C11.7714 19.5224 11.6025 19.4525 11.4264 19.4525ZM64.6043 42.6269V22.5207H62.6422V43.3483C63.2553 43.0086 63.9171 42.7653 64.6043 42.6269Z" fill="#54469C"/>
<path id="Vector_9" d="M72.4104 11.5837H53.3131L52.6807 11.7145V21.9875C52.6807 22.1636 52.7506 22.3324 52.8751 22.4569C52.9996 22.5814 53.1684 22.6514 53.3445 22.6514H72.3087C72.4847 22.6514 72.6536 22.5814 72.7781 22.4569C72.9026 22.3324 72.9725 22.1636 72.9725 21.9875V11.7145L72.4104 11.5837Z" fill="#FFE5C2"/>
<path id="Vector_10" d="M59.0827 49.3714C59.0827 47.4206 59.9002 45.6582 61.2091 44.4051H7.96209V15.8968C7.96209 15.3396 8.41547 14.8861 8.97283 14.8861H52.8116V12.924H8.97283C7.33357 12.924 6 14.2577 6 15.8968V51.1835C6 52.8226 7.33357 54.1562 8.97283 54.1562H59.0827V49.3714Z" fill="#54469C"/>
<path id="Vector_11" d="M11.6214 51.1835V44.4049H7.96209V15.8968C7.96209 15.3396 8.41547 14.8861 8.97283 14.8861H11.7985C12.213 13.7429 13.3097 12.924 14.5941 12.924H8.97283C7.33357 12.924 6 14.2577 6 15.8968V51.1835C6 52.8226 7.33357 54.1562 8.97283 54.1562H14.5942C12.955 54.1562 11.6214 52.8226 11.6214 51.1835Z" fill="#463B84"/>
<path id="Vector_12" d="M54.5724 29.1191C53.5924 29.1179 52.6329 29.4 51.8096 29.9315L53.345 32.3567C53.3978 32.4402 53.4009 32.542 53.3532 32.6287C53.3055 32.7155 53.2178 32.7673 53.1188 32.7673H49.6761C49.5346 33.2415 49.4628 33.7337 49.4629 34.2286C49.4629 37.0505 51.7504 39.3382 54.5724 39.3382C57.3943 39.3382 59.682 37.0506 59.682 34.2286C59.682 31.4066 57.3943 29.1191 54.5724 29.1191Z" fill="#FED402"/>
<g id="Group_2">
<path id="Vector_13" d="M53.2637 32.2286C53.823 30.9162 54.9153 29.8856 56.2691 29.4089C55.724 29.2169 55.1502 29.1189 54.5723 29.1192C53.5923 29.118 52.6328 29.4002 51.8094 29.9316L53.2637 32.2286ZM52.8567 34.2285C52.8567 33.7204 52.9316 33.2302 53.0696 32.7671H49.6761C49.5346 33.2414 49.4628 33.7336 49.4629 34.2285C49.4629 37.0504 51.7506 39.338 54.5724 39.338C55.1504 39.3383 55.7242 39.2403 56.2693 39.0483C54.2817 38.3485 52.8567 36.4553 52.8567 34.2285Z" fill="#FAC600"/>
</g>
<path id="Vector_14" d="M65.9626 64.2587C62.1068 64.2587 58.9521 61.1041 58.9521 57.2483V49.3714C58.9521 45.5156 62.1068 42.361 65.9626 42.361C69.8183 42.361 72.973 45.5156 72.973 49.3714V57.2483C72.973 61.1041 69.8183 64.2587 65.9626 64.2587Z" fill="#EAF6FF"/>
<path id="Vector_15" d="M61.8546 57.2483V49.3714C61.8546 46.9491 63.0999 44.8043 64.9817 43.5442V42.4315C61.5862 42.9124 58.9521 45.8485 58.9521 49.3714V57.2483C58.9521 61.1041 62.1068 64.2587 65.9626 64.2587C66.4591 64.2587 66.9435 64.2051 67.4114 64.1051C64.2472 63.431 61.8546 60.6059 61.8546 57.2483Z" fill="#D8ECFE"/>
<g id="Group_3">
<path id="Vector_16" d="M65.9625 46.6968C66.3234 46.6968 66.6593 46.8029 66.9435 46.9831V42.4315C66.6186 42.385 66.2908 42.3614 65.9625 42.361C65.6342 42.3614 65.3064 42.385 64.9814 42.4315V46.9831C65.2745 46.7962 65.6149 46.6969 65.9625 46.6968ZM65.9625 51.8884C65.6149 51.8883 65.2745 51.789 64.9814 51.602V54.3338C64.9814 54.8756 65.4206 55.3148 65.9625 55.3148C66.5044 55.3148 66.9435 54.8756 66.9435 54.3338V51.6019C66.6505 51.7889 66.3101 51.8883 65.9625 51.8884Z" fill="#C4E2FF"/>
</g>
<path id="Vector_17" d="M65.9624 52.0193C64.8749 52.0193 63.9932 51.1377 63.9932 50.05V48.5353C63.9932 47.4478 64.8748 46.566 65.9624 46.566C67.05 46.566 67.9317 47.4476 67.9317 48.5353V50.05C67.9316 51.1375 67.05 52.0193 65.9624 52.0193Z" fill="#0ED290"/>
<path id="Vector_18" d="M65.7641 50.05V48.5353C65.7641 47.7665 66.2056 47.1026 66.8479 46.7782C66.5735 46.6389 66.2701 46.5662 65.9623 46.5661C64.8748 46.5661 63.9932 47.4478 63.9932 48.5354V50.0502C63.9932 51.1377 64.8748 52.0194 65.9623 52.0194C66.2812 52.0194 66.5814 51.9419 66.8479 51.8074C66.2056 51.4827 65.7641 50.8186 65.7641 50.05Z" fill="#00C285"/>
<path id="Vector_19" d="M36.5269 32.7673C36.479 32.7676 36.4318 32.7549 36.3906 32.7305C36.3493 32.7061 36.3154 32.6709 36.2927 32.6287C36.2692 32.5869 36.2576 32.5395 36.259 32.4915C36.2605 32.4436 36.275 32.397 36.3009 32.3567L42.2526 22.9563H28.6932C28.5876 22.9563 28.4863 22.9982 28.4116 23.0729C28.3369 23.1476 28.2949 23.2489 28.2949 23.3546V38.9397C28.2949 39.0454 28.3369 39.1467 28.4116 39.2214C28.4863 39.2961 28.5876 39.338 28.6932 39.338H44.2784C44.3307 39.338 44.3825 39.3277 44.4308 39.3077C44.4791 39.2877 44.523 39.2584 44.56 39.2214C44.597 39.1844 44.6264 39.1405 44.6464 39.0922C44.6664 39.0438 44.6767 38.992 44.6767 38.9397V32.7673H36.5269Z" fill="#0ED290"/>
<path id="Vector_20" d="M32.8068 38.9397V23.3546C32.8068 23.2489 32.8488 23.1476 32.9235 23.0729C32.9982 22.9982 33.0995 22.9563 33.2051 22.9563H28.6932C28.5876 22.9563 28.4863 22.9982 28.4116 23.0729C28.3369 23.1476 28.2949 23.2489 28.2949 23.3546V38.9397C28.2949 39.0454 28.3369 39.1467 28.4116 39.2214C28.4863 39.2961 28.5876 39.338 28.6932 39.338H33.2051C33.0995 39.338 32.9982 39.296 32.9235 39.2213C32.8488 39.1467 32.8069 39.0454 32.8068 38.9397Z" fill="#00C285"/>
<path id="Vector_21" d="M23.9151 23.9372H16.6158C16.0739 23.9372 15.6348 23.4979 15.6348 22.9561C15.6348 22.4143 16.0739 21.9751 16.6158 21.9751H23.9151C24.457 21.9751 24.8961 22.4143 24.8961 22.9561C24.8961 23.4979 24.457 23.9372 23.9151 23.9372ZM23.9151 27.1489H16.6158C16.0739 27.1489 15.6348 26.7096 15.6348 26.1678C15.6348 25.626 16.0739 25.1868 16.6158 25.1868H23.9151C24.457 25.1868 24.8961 25.626 24.8961 26.1678C24.8961 26.7096 24.457 27.1489 23.9151 27.1489ZM23.9151 30.3605H16.6158C16.0739 30.3605 15.6348 29.9213 15.6348 29.3795C15.6348 28.8377 16.0739 28.3985 16.6158 28.3985H23.9151C24.457 28.3985 24.8961 28.8377 24.8961 29.3795C24.8961 29.9213 24.457 30.3605 23.9151 30.3605ZM23.9151 35.1781H16.6158C16.0739 35.1781 15.6348 34.7389 15.6348 34.1971C15.6348 33.6553 16.0739 33.216 16.6158 33.216H23.9151C24.457 33.216 24.8961 33.6553 24.8961 34.1971C24.8961 34.7389 24.457 35.1781 23.9151 35.1781ZM23.9151 38.3898H16.6158C16.0739 38.3898 15.6348 37.9506 15.6348 37.4088C15.6348 36.867 16.0739 36.4277 16.6158 36.4277H23.9151C24.457 36.4277 24.8961 36.867 24.8961 37.4088C24.8961 37.9506 24.457 38.3898 23.9151 38.3898ZM20.4114 41.6015H16.6158C16.0739 41.6015 15.6348 41.1623 15.6348 40.6205C15.6348 40.0787 16.0739 39.6394 16.6158 39.6394H20.4114C20.6716 39.6394 20.9211 39.7428 21.1051 39.9268C21.2891 40.1107 21.3925 40.3603 21.3925 40.6205C21.3925 40.8807 21.2891 41.1302 21.1051 41.3142C20.9211 41.4981 20.6716 41.6015 20.4114 41.6015Z" fill="#60B7FF"/>
<path id="Vector_22" d="M44.4862 19.1836L36.1904 32.2865C36.0224 32.5518 36.213 32.8979 36.5269 32.8979H53.1187C53.4326 32.8979 53.6232 32.5517 53.4552 32.2865L45.1594 19.1836C45.0029 18.9366 44.6425 18.9366 44.4862 19.1836Z" fill="#FD4755"/>
<path id="Vector_23" d="M40.7032 32.2865L47.0792 22.2159L45.1594 19.1836C45.0029 18.9366 44.6427 18.9366 44.4862 19.1836L36.1904 32.2865C36.0224 32.5517 36.213 32.8979 36.5269 32.8979H41.0398C40.7258 32.8981 40.5352 32.5518 40.7032 32.2865Z" fill="#FB2B3A"/>
<path id="Vector_24" d="M57.1287 21.9875V11.7145H52.6807V21.9875C52.6807 22.1636 52.7506 22.3324 52.8751 22.4569C52.9996 22.5814 53.1684 22.6514 53.3445 22.6514H57.7927C57.7055 22.6514 57.6192 22.6342 57.5386 22.6009C57.4581 22.5675 57.3849 22.5186 57.3232 22.457C57.2616 22.3953 57.2126 22.3221 57.1793 22.2416C57.1459 22.161 57.1287 22.0747 57.1287 21.9875Z" fill="#FED2A4"/>
<path id="Vector_25" d="M68.9785 16.4913H56.6754C56.1335 16.4913 55.6943 16.0521 55.6943 15.5103C55.6943 14.9685 56.1335 14.5292 56.6754 14.5292H68.9785C69.2387 14.5292 69.4882 14.6326 69.6722 14.8166C69.8562 15.0005 69.9595 15.2501 69.9595 15.5103C69.9595 15.7704 69.8562 16.02 69.6722 16.204C69.4882 16.3879 69.2387 16.4913 68.9785 16.4913ZM60.3504 19.6491H56.6754C56.1335 19.6491 55.6943 19.2098 55.6943 18.6681C55.6943 18.1263 56.1335 17.687 56.6754 17.687H60.3504C60.8923 17.687 61.3314 18.1263 61.3314 18.6681C61.3314 19.2098 60.8923 19.6491 60.3504 19.6491ZM68.9785 19.6491H64.0252C63.4833 19.6491 63.0442 19.2098 63.0442 18.6681C63.0442 18.1263 63.4833 17.687 64.0252 17.687H68.9785C69.2387 17.687 69.4882 17.7904 69.6722 17.9743C69.8562 18.1583 69.9595 18.4079 69.9595 18.6681C69.9595 18.9282 69.8562 19.1778 69.6722 19.3618C69.4882 19.5457 69.2387 19.6491 68.9785 19.6491Z" fill="#FE7701"/>
<path id="Vector_26" d="M72.9726 11.7145H52.6807V8.72887C52.6807 8.55281 52.7506 8.38396 52.8751 8.25947C52.9996 8.13497 53.1684 8.06503 53.3445 8.06503H72.3087C72.4847 8.06503 72.6536 8.13497 72.7781 8.25947C72.9026 8.38396 72.9725 8.55281 72.9725 8.72887V11.7145H72.9726Z" fill="#6E61B6"/>
<path id="Vector_27" d="M57.7927 8.0649H53.3445C53.2573 8.0649 53.171 8.08207 53.0905 8.11544C53.0099 8.1488 52.9367 8.19769 52.8751 8.25934C52.8135 8.32098 52.7646 8.39416 52.7312 8.4747C52.6978 8.55524 52.6807 8.64157 52.6807 8.72874V11.7145H57.1289V8.72888C57.1288 8.64168 57.146 8.55534 57.1793 8.47477C57.2127 8.39421 57.2616 8.32101 57.3232 8.25935C57.3849 8.19768 57.4581 8.14878 57.5386 8.11541C57.6192 8.08205 57.7055 8.06489 57.7927 8.0649Z" fill="#6354B1"/>
<path id="Vector_28" d="M37.1268 50.0686H33.4771C32.9352 50.0686 32.4961 49.6294 32.4961 49.0876C32.4961 48.5458 32.9352 48.1065 33.4771 48.1065H37.1268C37.387 48.1065 37.6365 48.2099 37.8205 48.3939C38.0044 48.5778 38.1078 48.8274 38.1078 49.0876C38.1078 49.3477 38.0044 49.5973 37.8205 49.7813C37.6365 49.9652 37.387 50.0686 37.1268 50.0686Z" fill="#0ED290"/>
<path id="Vector_29" d="M11.7858 5.30228L11.6531 4.99998H8.30926C7.57596 4.99998 6.98145 5.5945 6.98145 6.3278V8.78172C6.98145 9.51502 7.57596 10.1095 8.30926 10.1095H11.6531L11.7858 9.79756V5.30228Z" fill="#FD4755"/>
<path id="Vector_30" d="M8.30926 7.91291C7.57596 7.91291 6.98145 7.3184 6.98145 6.5851V8.78173C6.98145 9.51503 7.57596 10.1095 8.30926 10.1095H11.6531L11.7858 9.79757V7.60081L11.6531 7.91291H8.30926Z" fill="#FB2B3A"/>
<path id="Vector_31" d="M40.4535 7.18981L35.4482 4.99998L35.3154 5.26775V9.80279L35.4482 10.1094L40.4535 7.91958C40.7717 7.7804 40.7717 7.32899 40.4535 7.18981Z" fill="#54469C"/>
<path id="Vector_32" d="M40.4535 7.18981L38.7773 6.45638L35.4482 7.91278V10.1094L40.4535 7.91958C40.7718 7.7804 40.7718 7.32899 40.4535 7.18981Z" fill="#463B84"/>
<path id="Vector_33" d="M11.6523 4.99998H35.4479V10.1095H11.6523V4.99998Z" fill="#FED402"/>
<path id="Vector_34" d="M14.9861 7.25888V4.99998H11.6523V10.1095H35.4479V7.91291H15.6401C15.4666 7.91291 15.3003 7.844 15.1776 7.72135C15.055 7.59869 14.9861 7.43234 14.9861 7.25888Z" fill="#FAC600"/>
</g>
</g>
</svg>
