<svg width="95" height="93" viewBox="0 0 95 93" fill="none" xmlns="http://www.w3.org/2000/svg">
<g id="Icon">
<path id="BG" d="M65.3958 66.4511C49.1516 81.0729 24.1297 79.7577 9.50787 63.5135C-5.11398 47.2693 14.6534 42.7469 30.8976 28.1251C47.1418 13.5032 53.7115 -5.68108 68.3334 10.5631C82.9552 26.8073 81.64 51.8292 65.3958 66.4511Z" fill="#0AA89D"/>
<g id="Group">
<path id="Vector" d="M64.5518 10.5536H14.464C11.9986 10.5536 10 12.5522 10 15.0176V47.6714C10 50.1367 11.9986 52.1353 14.464 52.1353H64.5518C67.0172 52.1353 69.0158 50.1367 69.0158 47.6714V15.0176C69.0158 12.5522 67.0172 10.5536 64.5518 10.5536Z" fill="#EFEFEF"/>
<path id="Vector_2" fill-rule="evenodd" clip-rule="evenodd" d="M33.1283 52.1353H45.8875L48.8752 60.5712H44.1301L42.935 56.4939H36.0457L34.8858 60.5712H30.1055L33.1283 52.1353Z" fill="#BABABA"/>
<path id="Vector_3" fill-rule="evenodd" clip-rule="evenodd" d="M27.9966 60.5712H50.9843C52.2146 60.5712 53.1988 61.5554 53.1988 62.7856V65H25.8174V62.7856C25.8174 61.5554 26.8016 60.5712 27.9966 60.5712ZM60.791 49.2179C60.4395 49.2179 60.1935 48.9719 60.1935 48.6204C60.1935 48.304 60.4395 48.058 60.791 48.058H64.2708C64.6223 48.058 64.8684 48.304 64.8684 48.6204C64.8684 48.9719 64.6223 49.2179 64.2708 49.2179H60.791Z" fill="#CCCCCC"/>
<path id="Vector_4" fill-rule="evenodd" clip-rule="evenodd" d="M10 15.0176V45.1406H69.0158V15.0176C69.0158 12.5571 67.0123 10.5536 64.5518 10.5536H14.464C12.0035 10.5536 10 12.5571 10 15.0176Z" fill="#666666"/>
<path id="Vector_5" fill-rule="evenodd" clip-rule="evenodd" d="M11.1602 43.9455H67.821V15.0176C67.821 13.225 66.3447 11.7135 64.5521 11.7135H14.4642C12.6716 11.7135 11.1602 13.225 11.1602 15.0176V43.9455Z" fill="#99FFFF"/>
<path id="Vector_6" fill-rule="evenodd" clip-rule="evenodd" d="M57.206 45.1406H21.8105V52.1353H57.206V45.1406Z" fill="#CCCCCC"/>
<path id="Vector_7" d="M44.3762 11.1863V22.645H34.6399V11.1863H26.8718V16.4235H20.6855V5H58.2954V16.4235H52.1091V11.1863H44.3762ZM44.3762 29.6749V38.9192H48.559V43.9455H30.4219V38.9192H34.6399V29.6749H44.3762Z" fill="#00516A"/>
<path id="Vector_8" fill-rule="evenodd" clip-rule="evenodd" d="M23.3662 29.6706V22.633H26.9245V29.6706H23.3662Z" fill="#CCCCCC"/>
<path id="Vector_9" fill-rule="evenodd" clip-rule="evenodd" d="M25.7117 29.6749H24.5869V26.1599C24.5869 25.8436 24.833 25.5975 25.1493 25.5975C25.4656 25.5975 25.7117 25.8436 25.7117 26.1599V29.6749Z" fill="#B1B1B1"/>
<path id="Vector_10" fill-rule="evenodd" clip-rule="evenodd" d="M23.3564 29.6749V22.645H20.685C19.2088 22.645 18.0137 23.8401 18.0137 25.3163V27.0035C18.0137 28.4798 19.2088 29.6749 20.685 29.6749H23.3564Z" fill="#D51660"/>
<path id="Vector_11" fill-rule="evenodd" clip-rule="evenodd" d="M61.0016 26.1599L54.4287 29.6749V22.645L61.0016 26.1599Z" fill="#EDBF8A"/>
<path id="Vector_12" fill-rule="evenodd" clip-rule="evenodd" d="M61.0021 26.1599L57.8387 27.8471L56.8896 24.1916V23.9455L61.0021 26.1599Z" fill="#51504E"/>
<path id="Vector_13" fill-rule="evenodd" clip-rule="evenodd" d="M54.4138 22.6396V29.6496H26.9287V22.6396H54.4138Z" fill="#E2722F"/>
<path id="Vector_14" fill-rule="evenodd" clip-rule="evenodd" d="M54.4138 24.9613V27.3343H26.9287V24.9613H54.4138Z" fill="#F6882F"/>
<path id="Vector_15" fill-rule="evenodd" clip-rule="evenodd" d="M26.9072 24.9648H54.4292V22.645H26.9072V24.9648Z" fill="#F6AE4C"/>
</g>
</g>
</svg>
