<svg width="95" height="93" viewBox="0 0 95 93" fill="none" xmlns="http://www.w3.org/2000/svg">
<g id="Icon">
<path id="BG" d="M65.3958 66.4511C49.1516 81.0729 24.1297 79.7577 9.50787 63.5135C-5.11398 47.2693 14.6534 42.7469 30.8976 28.1251C47.1418 13.5032 53.7115 -5.68108 68.3334 10.5631C82.9552 26.8073 81.64 51.8292 65.3958 66.4511Z" fill="#0AA89D"/>
<g id="Icon_2">
<path id="Vector" d="M66.4591 54.6513H12.5596C11.146 54.6513 10 53.5053 10 52.0917V16.5781C10 15.1645 11.146 14.0185 12.5596 14.0185H66.4591C67.8727 14.0185 69.0187 15.1645 69.0187 16.5781V52.0917C69.0188 53.5053 67.8727 54.6513 66.4591 54.6513Z" fill="#EBEDF2"/>
<path id="Vector_2" d="M32.8936 54.3535H46.1252V61.6578H32.8936V54.3535Z" fill="#003666"/>
<path id="Vector_3" d="M32.8936 54.3534V56.5598H39.1582C41.9736 56.5598 44.2561 58.8421 44.2561 61.6577H46.1254V54.3534H32.8936Z" fill="#00173F"/>
<path id="Vector_4" d="M10 43.6198V52.0917C10 53.5053 11.146 54.6514 12.5596 54.6514H66.4589C67.8726 54.6514 69.0187 53.5054 69.0187 52.0917V43.6198H10Z" fill="#1952A5"/>
<path id="Vector_5" d="M40.0026 50.9942C41.0293 50.9942 41.8617 50.1619 41.8617 49.1352C41.8617 48.1084 41.0293 47.2761 40.0026 47.2761C38.9759 47.2761 38.1436 48.1084 38.1436 49.1352C38.1436 50.1619 38.9759 50.9942 40.0026 50.9942Z" fill="#2AA1F2"/>
<path id="Vector_6" d="M49.7491 10.8595H33.975C33.4672 10.8595 33.0557 10.4479 33.0557 9.94016C33.0557 9.43238 33.4672 9.02082 33.975 9.02082H49.7491C50.2569 9.02082 50.6685 9.43238 50.6685 9.94016C50.6685 10.4479 50.2569 10.8595 49.7491 10.8595ZM40.9996 14.7774H33.975C33.4672 14.7774 33.0557 14.3659 33.0557 13.8581C33.0557 13.3503 33.4672 12.9388 33.975 12.9388H40.9996C41.2434 12.9388 41.4772 13.0356 41.6496 13.208C41.822 13.3804 41.9189 13.6143 41.9189 13.8581C41.9189 13.9788 41.8952 14.0984 41.849 14.2099C41.8028 14.3215 41.7351 14.4228 41.6497 14.5082C41.5643 14.5936 41.463 14.6613 41.3514 14.7075C41.2399 14.7537 41.1203 14.7775 40.9996 14.7774Z" fill="black"/>
<path id="Vector_7" d="M15.0742 14.0184L18.3037 43.0431H60.4708L64.3819 14.0184H15.0742Z" fill="#D3D9EF"/>
<path id="Vector_8" d="M60.4708 43.6198H18.3037V6.84301C18.3037 5.82512 19.1288 5 20.1467 5H58.6278C59.6457 5 60.4708 5.82512 60.4708 6.84301V43.6198Z" fill="#EBEDF2"/>
<path id="Vector_9" d="M58.6278 5H20.1467C19.1288 5 18.3037 5.82512 18.3037 6.84301V18.4314H60.4708V6.84301C60.4708 5.82512 59.6457 5 58.6278 5Z" fill="#00CF69"/>
<path id="Vector_10" d="M25.4646 8.80812L22.4385 14.0494H28.4906L25.4646 8.80812Z" fill="#FBC640"/>
<path id="Vector_11" d="M48.3916 10.2041H32.6176C32.1098 10.2041 31.6982 9.7925 31.6982 9.28472C31.6982 8.77695 32.1098 8.36539 32.6176 8.36539H48.3916C48.8994 8.36539 49.3109 8.77695 49.3109 9.28472C49.3109 9.7925 48.8994 10.2041 48.3916 10.2041Z" fill="white"/>
<path id="Vector_12" d="M56.8423 24.5793H43.5277C43.02 24.5793 42.6084 24.1678 42.6084 23.66C42.6084 23.1522 43.02 22.7407 43.5277 22.7407H56.8422C57.0861 22.7407 57.3199 22.8375 57.4923 23.0099C57.6647 23.1823 57.7616 23.4162 57.7616 23.66C57.7616 23.7807 57.7378 23.9003 57.6917 24.0118C57.6455 24.1234 57.5778 24.2247 57.4924 24.3101C57.407 24.3955 57.3057 24.4632 57.1942 24.5094C57.0826 24.5556 56.9631 24.5793 56.8423 24.5793ZM56.8423 28.6227H43.5277C43.02 28.6227 42.6084 28.2111 42.6084 27.7033C42.6084 27.1955 43.02 26.784 43.5277 26.784H56.8422C57.35 26.784 57.7616 27.1955 57.7616 27.7033C57.7616 28.2111 57.3501 28.6227 56.8423 28.6227ZM56.8423 32.666H43.5277C43.2839 32.666 43.0501 32.5691 42.8777 32.3967C42.7053 32.2243 42.6084 31.9905 42.6084 31.7466C42.6084 31.5028 42.7053 31.269 42.8777 31.0966C43.0501 30.9242 43.2839 30.8273 43.5277 30.8273H56.8422C57.0861 30.8273 57.3199 30.9242 57.4923 31.0966C57.6647 31.269 57.7616 31.5028 57.7616 31.7466C57.7616 31.8674 57.7378 31.9869 57.6917 32.0985C57.6455 32.21 57.5778 32.3114 57.4924 32.3967C57.407 32.4821 57.3057 32.5498 57.1942 32.596C57.0826 32.6422 56.9631 32.666 56.8423 32.666ZM56.8423 36.7093H43.5277C43.02 36.7093 42.6084 36.2977 42.6084 35.79C42.6084 35.2822 43.02 34.8706 43.5277 34.8706H56.8422C57.35 34.8706 57.7616 35.2822 57.7616 35.79C57.7616 36.2977 57.3501 36.7093 56.8423 36.7093ZM49.7491 40.7526H43.5277C43.02 40.7526 42.6084 40.3411 42.6084 39.8333C42.6084 39.3255 43.02 38.9139 43.5277 38.9139H49.7491C50.2569 38.9139 50.6684 39.3255 50.6684 39.8333C50.6684 40.3411 50.2569 40.7526 49.7491 40.7526Z" fill="#9694AF"/>
<path id="Vector_13" d="M39.642 14.1222H32.6176C32.1098 14.1222 31.6982 13.7107 31.6982 13.2029C31.6982 12.6951 32.1098 12.2836 32.6176 12.2836H39.642C40.1498 12.2836 40.5614 12.6951 40.5614 13.2029C40.5614 13.7107 40.1498 14.1222 39.642 14.1222Z" fill="white"/>
<path id="Vector_14" d="M38.484 39.8333H23.3407C23.1014 39.8332 22.872 39.7382 22.7028 39.569C22.5336 39.3998 22.4385 39.1703 22.4385 38.9311V23.7877C22.4385 23.5485 22.5336 23.319 22.7028 23.1498C22.872 22.9806 23.1014 22.8855 23.3407 22.8855H38.484C38.7233 22.8855 38.9528 22.9806 39.122 23.1498C39.2912 23.319 39.3862 23.5485 39.3862 23.7877V38.9311C39.3862 39.1703 39.2912 39.3998 39.122 39.569C38.9528 39.7382 38.7233 39.8332 38.484 39.8333Z" fill="#2AA1F2"/>
<path id="Vector_15" d="M39.3862 38.9311V34.6392C38.9782 34.4681 38.533 34.3401 38.0561 34.2867C35.7157 34.0249 35.4019 35.8671 33.1281 36.0515C29.7676 36.3241 28.79 32.435 25.2881 32.6479C24.1507 32.7171 23.1832 33.1925 22.4385 33.7255V38.9311C22.4385 39.1703 22.5336 39.3998 22.7028 39.569C22.872 39.7382 23.1014 39.8332 23.3407 39.8333H38.4839C38.9824 39.8333 39.3862 39.4293 39.3862 38.9311Z" fill="#FFAD6A"/>
<path id="Vector_16" d="M33.3381 30.5656C34.384 30.5656 35.2318 29.7178 35.2318 28.6719C35.2318 27.626 34.384 26.7781 33.3381 26.7781C32.2922 26.7781 31.4443 27.626 31.4443 28.6719C31.4443 29.7178 32.2922 30.5656 33.3381 30.5656Z" fill="#FBC640"/>
<path id="Vector_17" d="M47.0866 61.3672H31.9327C30.0405 61.3672 28.5037 62.7733 28.2861 64.5629C28.2578 64.7955 28.4425 65 28.6769 65H50.3424C50.5768 65 50.7615 64.7955 50.7332 64.5629C50.5156 62.7733 48.9789 61.3672 47.0866 61.3672Z" fill="#1952A5"/>
<path id="Vector_18" d="M47.0865 61.3672H44.0127C46.0567 61.3672 47.7136 63.0078 47.7136 65H50.3698C50.6044 65 50.7893 64.795 50.7605 64.5622C50.5391 62.773 48.9786 61.3672 47.0865 61.3672Z" fill="#03427A"/>
</g>
</g>
</svg>
