<svg width="75" height="75" viewBox="0 0 65 65" fill="none" xmlns="http://www.w3.org/2000/svg">
<g id="Group 36">
<g id="Ellipse 7" filter="url(#filter0_b_121_1703)">

</g>
<g id="Group 35">
<path id="path0_fill" d="M26.7602 49.3312C29.9322 49.3312 32.5067 46.7684 32.5067 43.6106V37.8899H26.7602C23.5881 37.8899 21.0137 40.4527 21.0137 43.6106C21.0137 46.7684 23.5881 49.3312 26.7602 49.3312Z" fill="#0ACF83"/>
<path id="path1_fill" d="M21.0137 32.1693C21.0137 29.0115 23.5881 26.4486 26.7602 26.4486H32.5067V37.8899H26.7602C23.5881 37.8899 21.0137 35.3271 21.0137 32.1693Z" fill="#A259FF"/>
<path id="path1_fill_1_" d="M21.0137 20.728C21.0137 17.5702 23.5881 15.0073 26.7602 15.0073H32.5067V26.4486H26.7602C23.5881 26.4486 21.0137 23.8858 21.0137 20.728Z" fill="#F24E1E"/>
<path id="path2_fill" d="M32.5068 15.0073H38.2533C41.4254 15.0073 43.9998 17.5702 43.9998 20.728C43.9998 23.8858 41.4254 26.4486 38.2533 26.4486H32.5068V15.0073Z" fill="#FF7262"/>
<path id="path3_fill" d="M43.9998 32.1693C43.9998 35.3271 41.4254 37.8899 38.2533 37.8899C35.0813 37.8899 32.5068 35.3271 32.5068 32.1693C32.5068 29.0115 35.0813 26.4486 38.2533 26.4486C41.4254 26.4486 43.9998 29.0115 43.9998 32.1693Z" fill="#1ABCFE"/>
</g>
</g>
<defs>
<filter id="filter0_b_121_1703" x="-7" y="-7" width="79" height="79" filterUnits="userSpaceOnUse" color-interpolation-filters="sRGB">
<feFlood flood-opacity="0" result="BackgroundImageFix"/>
<feGaussianBlur in="BackgroundImageFix" stdDeviation="3.5"/>
<feComposite in2="SourceAlpha" operator="in" result="effect1_backgroundBlur_121_1703"/>
<feBlend mode="normal" in="SourceGraphic" in2="effect1_backgroundBlur_121_1703" result="shape"/>
</filter>
<linearGradient id="paint0_linear_121_1703" x1="32.5" y1="0" x2="32.5" y2="68.2918" gradientUnits="userSpaceOnUse">
<stop stop-color="#00998F"/>
<stop offset="1" stop-color="white" stop-opacity="0.09"/>
</linearGradient>
<linearGradient id="paint1_linear_121_1703" x1="32.5" y1="0" x2="32.5" y2="68.2918" gradientUnits="userSpaceOnUse">
<stop stop-color="white" stop-opacity="0.25"/>
<stop offset="1" stop-color="white" stop-opacity="0.04"/>
</linearGradient>
</defs>
</svg>
