<svg xmlns="http://www.w3.org/2000/svg" width="64" height="64" fill="none" xmlns:v="https://vecta.io/nano">
	<path d="M32 0c17.674 0 32 14.328 32 32S49.674 64 32 64 0 49.672 0 32 14.326 0 32 0z" fill="#0e76a8"/>
	<path d="M18.032 43.968h5.992V23.996h-5.992v19.972zm23.344-20.664c-2.908 0-5.51 1.062-7.356 3.406v-2.78h-6.014v20.038h6.014V33.132c0-2.29 2.098-4.524 4.726-4.524s3.276 2.234 3.276 4.468v10.89h5.992V32.63c0-7.874-3.728-9.326-6.638-9.326zM21 22a3 3 0 1 0 0-6 3 3 0 1 0 0 6z" fill="#fff"/>
</svg>