<svg xmlns="http://www.w3.org/2000/svg" width="103" height="16" fill="#fff" xmlns:v="https://vecta.io/nano"><path d="M16.956 6.046a.88.88 0 0 0-.296-.42.91.91 0 0 0-.482-.19l-4.907-.438-1.94-4.46C9.188.212 8.862 0 8.5 0s-.688.212-.831.539l-1.94 4.459-4.907.438a.91.91 0 0 0-.482.191c-.138.109-.241.254-.295.42-.112.338-.009.709.264.943l3.709 3.194-1.094 4.731a.88.88 0 0 0 .351.916c.158.112.343.169.529.169a.91.91 0 0 0 .463-.127L8.5 13.389l4.231 2.484c.31.183.7.166.993-.043a.89.89 0 0 0 .316-.406.87.87 0 0 0 .036-.51l-1.094-4.731 3.709-3.194c.133-.114.23-.265.277-.433a.87.87 0 0 0-.012-.511zm21.002 0c-.051-.165-.148-.312-.278-.42a.83.83 0 0 0-.454-.19l-4.618-.438-1.826-4.46A.85.85 0 0 0 30 0a.85.85 0 0 0-.782.539l-1.826 4.459-4.619.438a.83.83 0 0 0-.453.191.89.89 0 0 0-.278.42.91.91 0 0 0 .249.943l3.491 3.194-1.029 4.731c-.075.348.054.707.331.916.149.112.323.169.498.169a.82.82 0 0 0 .436-.127L30 13.389l3.982 2.484a.82.82 0 0 0 .935-.043c.135-.102.238-.243.297-.406s.07-.34.033-.51l-1.029-4.731 3.491-3.194c.126-.114.216-.265.261-.433s.04-.345-.011-.511zm21.998 0c-.054-.165-.157-.312-.295-.42a.91.91 0 0 0-.482-.19l-4.907-.438-1.94-4.46A.91.91 0 0 0 51.5 0c-.362 0-.688.212-.831.539l-1.94 4.459-4.907.438a.91.91 0 0 0-.482.191.88.88 0 0 0-.295.42c-.112.338-.009.709.264.943l3.709 3.194-1.094 4.731a.88.88 0 0 0 .351.916c.158.112.343.169.529.169a.91.91 0 0 0 .463-.127l4.233-2.484 4.231 2.484c.31.183.7.166.993-.043a.89.89 0 0 0 .316-.406c.063-.163.075-.34.035-.51l-1.094-4.731 3.709-3.194c.133-.114.23-.265.277-.433a.87.87 0 0 0-.012-.511zm21.002 0c-.051-.165-.148-.312-.278-.42a.83.83 0 0 0-.454-.19l-4.618-.438-1.826-4.46A.85.85 0 0 0 73 0a.85.85 0 0 0-.782.539l-1.826 4.459-4.619.438a.83.83 0 0 0-.453.191.89.89 0 0 0-.278.42.91.91 0 0 0 .249.943l3.491 3.194-1.029 4.731c-.075.348.054.707.331.916.149.112.323.169.498.169a.82.82 0 0 0 .436-.127L73 13.389l3.982 2.484a.82.82 0 0 0 .935-.043.88.88 0 0 0 .297-.406.93.93 0 0 0 .033-.51l-1.029-4.731 3.491-3.194c.126-.114.216-.265.26-.433s.04-.345-.011-.511zm21.998 0c-.055-.165-.157-.312-.296-.42a.91.91 0 0 0-.482-.19l-4.907-.438-1.94-4.46C95.188.212 94.862 0 94.5 0s-.688.212-.831.539l-1.94 4.459-4.907.438a.91.91 0 0 0-.482.191.88.88 0 0 0-.295.42c-.112.338-.009.709.264.943l3.709 3.194-1.094 4.731a.88.88 0 0 0 .351.916c.158.112.343.169.529.169a.91.91 0 0 0 .463-.127l4.233-2.484 4.231 2.484c.31.183.7.166.993-.043a.89.89 0 0 0 .316-.406.87.87 0 0 0 .035-.51l-1.093-4.731 3.709-3.194c.133-.114.229-.265.276-.433a.87.87 0 0 0-.011-.511z"/></svg>