<svg width="72" height="72" viewBox="0 0 72 72" fill="none" xmlns="http://www.w3.org/2000/svg">
<g id="Icon">
<g id="BG" filter="url(#filter0_b_121_2090)">
<rect width="72" height="72" rx="10" fill="url(#paint0_linear_121_2090)" fill-opacity="0.3"/>
<rect x="0.5" y="0.5" width="71" height="71" rx="9.5" stroke="url(#paint1_linear_121_2090)"/>
</g>
<g id="Icon_2">
<path id="Vector" d="M20.0021 48.3649V23.3452C19.998 23.3142 19.9999 23.2826 20.0077 23.2523C20.0155 23.222 20.029 23.1935 20.0475 23.1686C20.066 23.1437 20.089 23.1227 20.1154 23.107C20.1417 23.0912 20.1708 23.0809 20.201 23.0767C20.2216 23.0725 20.2427 23.0725 20.2632 23.0767C22.1533 23.0256 24.5532 23 27.463 23C30.895 23 33.4137 23.7928 35.0192 25.3784C35.7956 26.1297 36.4097 27.0404 36.8217 28.0515C37.2337 29.0626 37.4344 30.1515 37.4108 31.2475C37.4108 34.1345 36.416 36.2884 34.4265 37.7092C32.4369 39.1299 29.9499 39.8275 26.9656 39.802H24.7356V48.3265C24.7403 48.3621 24.7381 48.3982 24.7291 48.4329C24.7202 48.4676 24.7047 48.5001 24.6835 48.5286C24.6623 48.5571 24.6359 48.5811 24.6057 48.599C24.5755 48.617 24.5422 48.6287 24.5076 48.6334H20.2922C20.0974 48.6292 20.0021 48.5397 20.0021 48.3649ZM24.7356 26.6911V36.1193C25.5421 36.1875 26.3514 36.2131 27.1604 36.1961C28.5866 36.2578 29.9961 35.8615 31.1934 35.0623C32.249 34.3121 32.7699 33.0846 32.756 31.3797C32.756 29.8708 32.3029 28.7072 31.3965 27.8888C30.4902 27.0705 29.179 26.6499 27.463 26.6272H25.2081L24.7356 26.6911ZM51.5575 34.3633C50.2563 33.4992 48.7417 33.0362 47.1928 33.0292C46.5233 32.9728 45.8541 33.1418 45.2862 33.5108C45.1002 33.6455 44.9477 33.8233 44.8412 34.03C44.7346 34.2366 44.6769 34.4661 44.6727 34.7C44.6769 34.9273 44.7266 35.1514 44.8186 35.3581C44.9105 35.5649 45.0429 35.75 45.2074 35.902C45.8716 36.4258 46.6152 36.8333 47.4084 37.1082C49.4726 37.9266 50.9205 38.7904 51.7523 39.6997C52.6017 40.6537 53.0489 41.9151 52.9958 43.2075C53.0205 44.0144 52.8591 44.8158 52.5248 45.5463C52.1905 46.2767 51.6929 46.9154 51.0725 47.4102C49.7931 48.4729 48.0591 49.0028 45.8706 49C43.6821 48.9971 41.886 48.588 40.4822 47.7724C40.4081 47.7441 40.3455 47.6907 40.3049 47.621C40.2642 47.5513 40.2478 47.4694 40.2584 47.3888V43.8213C40.2541 43.7813 40.2603 43.7408 40.2763 43.7041C40.2924 43.6674 40.3176 43.6358 40.3496 43.6124C40.3734 43.592 40.4035 43.5808 40.4345 43.5808C40.4656 43.5808 40.4957 43.592 40.5195 43.6124C42.0054 44.7893 43.8252 45.433 45.7007 45.4452C46.3965 45.492 47.0902 45.3259 47.6944 44.9679C47.9057 44.8399 48.0808 44.6573 48.2022 44.4382C48.3237 44.2191 48.3872 43.9712 48.3866 43.719C48.3906 43.4648 48.3429 43.2125 48.2465 42.9784C48.1502 42.7442 48.0073 42.5334 47.827 42.3593C47.1697 41.8237 46.4242 41.4137 45.6261 41.1488C43.6365 40.3561 42.2548 39.5036 41.4811 38.5915C40.6899 37.6422 40.2729 36.4227 40.3123 35.1731C40.3018 34.4165 40.4534 33.6669 40.7564 32.9774C41.0594 32.2879 41.5064 31.6754 42.0656 31.1836C43.2344 30.1351 44.8924 29.6108 47.0395 29.6108C49.0539 29.6108 50.6083 29.895 51.7025 30.4633C51.8269 30.54 51.889 30.7062 51.889 30.962V34.1459C51.8932 34.44 51.7813 34.5082 51.5575 34.3633Z" fill="#00D4FF"/>
</g>
</g>
<defs>
<filter id="filter0_b_121_2090" x="-7" y="-7" width="86" height="86" filterUnits="userSpaceOnUse" color-interpolation-filters="sRGB">
<feFlood flood-opacity="0" result="BackgroundImageFix"/>
<feGaussianBlur in="BackgroundImageFix" stdDeviation="3.5"/>
<feComposite in2="SourceAlpha" operator="in" result="effect1_backgroundBlur_121_2090"/>
<feBlend mode="normal" in="SourceGraphic" in2="effect1_backgroundBlur_121_2090" result="shape"/>
</filter>
<linearGradient id="paint0_linear_121_2090" x1="36" y1="0" x2="36" y2="68.7059" gradientUnits="userSpaceOnUse">
<stop stop-color="white" stop-opacity="0.47"/>
<stop offset="1" stop-color="white" stop-opacity="0.09"/>
</linearGradient>
<linearGradient id="paint1_linear_121_2090" x1="36" y1="0" x2="36" y2="68.7059" gradientUnits="userSpaceOnUse">
<stop stop-color="white" stop-opacity="0.25"/>
<stop offset="1" stop-color="white" stop-opacity="0.04"/>
</linearGradient>
</defs>
</svg>
