<svg width="72" height="72" viewBox="0 0 72 72" fill="none" xmlns="http://www.w3.org/2000/svg">
<g id="Icon">
<g id="BG" filter="url(#filter0_b_121_2104)">
<rect width="72" height="72" rx="10" fill="url(#paint0_linear_121_2104)" fill-opacity="0.3"/>
<rect x="0.5" y="0.5" width="71" height="71" rx="9.5" stroke="url(#paint1_linear_121_2104)"/>
</g>
<g id="icon">
<path id="Vector" d="M31.4238 41.9096H22.9035L20.7038 48.2153C20.6788 48.4233 20.5455 48.5273 20.3063 48.5273H16.3068C16.0402 48.5273 15.9473 48.3973 16.0283 48.1373L23.7463 25.3794C23.9644 24.6865 24.0721 23.964 24.0653 23.2381C24.0616 23.2107 24.0634 23.1829 24.0705 23.1562C24.0777 23.1295 24.0901 23.1044 24.107 23.0825C24.1239 23.0605 24.145 23.0421 24.1691 23.0283C24.1932 23.0144 24.2198 23.0054 24.2474 23.0018C24.266 22.9994 24.2848 22.9994 24.3033 23.0018H29.8978C30.0597 23.0018 30.1525 23.0679 30.1787 23.1956L38.8204 48.1728C38.9013 48.4091 38.8347 48.5273 38.6204 48.5273H34.1425C34.0596 48.5322 33.9772 48.5123 33.9059 48.4702C33.8346 48.428 33.7777 48.3656 33.7425 48.291L31.4238 41.9096ZM23.8558 37.6553H30.493C30.3335 37.3079 27.3482 27.7453 27.1339 26.9393H27.0958L23.8558 37.6553ZM51.5996 40.137H44.5458C44.5736 41.7733 45.0362 43.0653 45.9337 44.0131C46.8312 44.9608 48.1802 45.4335 49.9808 45.4312C51.489 45.4579 52.986 45.1705 54.3754 44.5874C54.5302 44.4858 54.6135 44.5354 54.6135 44.741V47.5417C54.6124 47.6316 54.5903 47.72 54.549 47.7999C54.5077 47.8799 54.4483 47.9493 54.3754 48.0026C52.9153 48.6675 51.1163 49 48.9785 49C45.8202 49 43.5015 48.0979 42.0223 46.2938C40.5432 44.4897 39.8044 42.2318 39.806 39.5201C39.806 36.7013 40.5765 34.3465 42.1176 32.4557C43.6586 30.5649 45.7663 29.6195 48.4405 29.6195C50.9799 29.6195 52.8748 30.3994 54.1255 31.9593C55.3695 33.5188 56.03 35.4584 55.9942 37.4473C56.0184 38.1927 55.9665 38.9387 55.8395 39.6737C55.834 39.753 55.8 39.8277 55.7436 39.8841C55.6872 39.9405 55.6122 39.9749 55.5324 39.981C54.8642 40.0842 53.5549 40.1354 51.6044 40.1346L51.5996 40.137ZM44.5458 37.1826H49.6356C50.7465 37.1826 51.3758 37.1566 51.5234 37.1046C51.5557 36.9277 51.5684 36.7478 51.5615 36.5681C51.5727 35.6443 51.3039 34.7386 50.7902 33.9683C50.276 33.201 49.4428 32.8173 48.2905 32.8173C47.1605 32.8173 46.2876 33.2262 45.6718 34.0439C45.0143 34.9682 44.6248 36.0538 44.5458 37.1826Z" fill="#D7A2FE"/>
</g>
</g>
<defs>
<filter id="filter0_b_121_2104" x="-7" y="-7" width="86" height="86" filterUnits="userSpaceOnUse" color-interpolation-filters="sRGB">
<feFlood flood-opacity="0" result="BackgroundImageFix"/>
<feGaussianBlur in="BackgroundImageFix" stdDeviation="3.5"/>
<feComposite in2="SourceAlpha" operator="in" result="effect1_backgroundBlur_121_2104"/>
<feBlend mode="normal" in="SourceGraphic" in2="effect1_backgroundBlur_121_2104" result="shape"/>
</filter>
<linearGradient id="paint0_linear_121_2104" x1="36" y1="0" x2="36" y2="68.7059" gradientUnits="userSpaceOnUse">
<stop stop-color="white" stop-opacity="0.47"/>
<stop offset="1" stop-color="white" stop-opacity="0.09"/>
</linearGradient>
<linearGradient id="paint1_linear_121_2104" x1="36" y1="0" x2="36" y2="68.7059" gradientUnits="userSpaceOnUse">
<stop stop-color="white" stop-opacity="0.25"/>
<stop offset="1" stop-color="white" stop-opacity="0.04"/>
</linearGradient>
</defs>
</svg>
