<svg width="72" height="72" viewBox="0 0 72 72" fill="none" xmlns="http://www.w3.org/2000/svg">
<g id="Icon">
<g id="BG" filter="url(#filter0_b_121_2045)">
<rect width="72" height="72" rx="10" fill="url(#paint0_linear_121_2045)" fill-opacity="0.3"/>
<rect x="0.5" y="0.5" width="71" height="71" rx="9.5" stroke="url(#paint1_linear_121_2045)"/>
</g>
<path id="Vector" d="M36.7014 42.9974H27.4754L25.0935 49.9829C25.0651 50.2133 24.9208 50.3285 24.663 50.3285H20.3322C20.0435 50.3285 19.943 50.1845 20.0306 49.8965L28.3879 24.6905C28.6223 23.9225 28.7388 23.1224 28.7334 22.3184C28.729 22.2881 28.7307 22.2572 28.7382 22.2276C28.7457 22.1979 28.759 22.1701 28.7772 22.1457C28.7955 22.1214 28.8183 22.1009 28.8444 22.0856C28.8705 22.0703 28.8994 22.0604 28.9293 22.0566C28.9498 22.0541 28.9706 22.0541 28.9912 22.0566H35.0542C35.2295 22.0566 35.33 22.1299 35.3584 22.2713L44.7108 49.9462C44.7984 50.208 44.7262 50.3337 44.4942 50.3337H39.6453C39.5556 50.3395 39.4662 50.3176 39.3889 50.2709C39.3116 50.2242 39.25 50.1548 39.2123 50.0719L36.7014 42.9974ZM28.5065 38.2845H35.6935C35.5208 37.8996 32.2882 27.3088 32.0562 26.4133H32.015L28.5065 38.2845ZM49.8793 27.2878C49.4728 27.3059 49.0668 27.2409 48.6856 27.0965C48.3043 26.9521 47.9555 26.7314 47.6598 26.4474C47.3701 26.1485 47.1449 25.7916 46.9984 25.3994C46.8519 25.0072 46.7875 24.5884 46.8091 24.1695C46.7903 23.7454 46.8582 23.3219 47.0086 22.9258C47.159 22.5296 47.3886 22.1695 47.683 21.8681C47.9814 21.5796 48.3334 21.3546 48.7186 21.2063C49.1037 21.0579 49.5141 20.9892 49.9257 21.004C50.3381 20.9824 50.7504 21.048 51.1365 21.1967C51.5225 21.3455 51.8739 21.5741 52.1684 21.8681C52.4497 22.1763 52.6677 22.5383 52.8098 22.933C52.9519 23.3276 53.0151 23.7471 52.9959 24.1669C53.0176 24.5857 52.9531 25.0046 52.8066 25.3968C52.6602 25.7889 52.4349 26.1458 52.1452 26.4448C51.842 26.7317 51.4853 26.9541 51.0962 27.0989C50.707 27.2437 50.2933 27.308 49.8793 27.2878ZM47.3247 49.9357V29.7333C47.3189 29.6931 47.3209 29.652 47.3307 29.6126C47.3405 29.5732 47.3579 29.5361 47.3818 29.5035C47.4058 29.4709 47.4359 29.4434 47.4703 29.4227C47.5047 29.4019 47.5428 29.3882 47.5825 29.3824C47.6123 29.3771 47.6429 29.3771 47.6727 29.3824H52.1375C52.2174 29.3712 52.2985 29.3924 52.3631 29.4414C52.4278 29.4904 52.4708 29.5633 52.4829 29.6443C52.4855 29.6721 52.4855 29.7002 52.4829 29.7281V49.9724C52.4888 50.0126 52.4867 50.0536 52.4769 50.0931C52.4671 50.1325 52.4497 50.1696 52.4258 50.2022C52.4018 50.2348 52.3718 50.2622 52.3373 50.283C52.3029 50.3038 52.2648 50.3175 52.2251 50.3232C52.1961 50.3283 52.1665 50.3283 52.1375 50.3232H47.7114C47.6215 50.3359 47.5303 50.3119 47.4578 50.2565C47.3853 50.201 47.3375 50.1186 47.3247 50.0274C47.3201 49.997 47.3201 49.9661 47.3247 49.9357Z" fill="#FF9A00"/>
</g>
<defs>
<filter id="filter0_b_121_2045" x="-7" y="-7" width="86" height="86" filterUnits="userSpaceOnUse" color-interpolation-filters="sRGB">
<feFlood flood-opacity="0" result="BackgroundImageFix"/>
<feGaussianBlur in="BackgroundImageFix" stdDeviation="3.5"/>
<feComposite in2="SourceAlpha" operator="in" result="effect1_backgroundBlur_121_2045"/>
<feBlend mode="normal" in="SourceGraphic" in2="effect1_backgroundBlur_121_2045" result="shape"/>
</filter>
<linearGradient id="paint0_linear_121_2045" x1="36" y1="0" x2="36" y2="68.7059" gradientUnits="userSpaceOnUse">
<stop stop-color="white" stop-opacity="0.47"/>
<stop offset="1" stop-color="white" stop-opacity="0.09"/>
</linearGradient>
<linearGradient id="paint1_linear_121_2045" x1="36" y1="0" x2="36" y2="68.7059" gradientUnits="userSpaceOnUse">
<stop stop-color="white" stop-opacity="0.25"/>
<stop offset="1" stop-color="white" stop-opacity="0.04"/>
</linearGradient>
</defs>
</svg>
