<svg width="72" height="72" viewBox="0 0 72 72" fill="none" xmlns="http://www.w3.org/2000/svg">
<g id="Icon">
<g id="BG" filter="url(#filter0_b_121_2118)">
<rect width="72" height="72" rx="10" fill="url(#paint0_linear_121_2118)" fill-opacity="0.3"/>
<rect x="0.5" y="0.5" width="71" height="71" rx="9.5" stroke="url(#paint1_linear_121_2118)"/>
</g>
<g id="Icon_2">
<path id="Vector" d="M26.3587 23C28.5004 23 30.2772 23.2545 31.7405 23.7898C34.1969 24.6894 36.2174 26.3454 37.148 28.7864C37.5436 29.8484 37.747 30.9695 37.7492 32.0995C37.7492 35.8583 35.7165 39.291 31.9756 40.6387C30.1988 41.2755 28.2395 41.5049 26.0978 41.5049C25.4709 41.5049 25.0533 41.5049 24.7913 41.4798C24.5292 41.4547 24.1704 41.4583 23.6684 41.4583V49.6402C23.6742 49.6823 23.6713 49.7251 23.6599 49.766C23.6485 49.807 23.6288 49.8453 23.602 49.8787C23.5752 49.9121 23.5417 49.9399 23.5037 49.9605C23.4657 49.9811 23.4238 49.9941 23.3806 49.9987H18.3135C18.1041 49.9987 18 49.8959 18 49.6665V23.4337C18 23.2545 18.0784 23.1529 18.2608 23.1529C18.7053 23.1529 19.118 23.1529 19.7303 23.1278L26.3587 23ZM23.6941 28.0767V36.6421C24.0614 36.6672 24.3994 36.6923 24.7129 36.6923H26.0978C27.1175 36.6935 28.1311 36.5387 29.1016 36.2335C30.9727 35.6421 32.0539 34.157 32.0539 32.2572C32.0539 30.667 31.1968 29.1161 29.6245 28.5355C28.644 28.1606 27.5947 27.9873 26.5423 28.0265C25.8627 28.0265 25.2615 28.0265 24.7655 28.0516C24.4083 28.0291 24.0498 28.0375 23.6941 28.0767ZM41.4069 29.5558H45.9781C46.1019 29.5587 46.2215 29.5996 46.32 29.6728C46.4185 29.746 46.4909 29.8476 46.5267 29.9632C46.6062 30.1682 46.6588 30.3822 46.6834 30.6001C46.7361 30.8557 46.7875 31.1353 46.8145 31.391C46.8402 31.6706 46.8659 31.9765 46.8659 32.3086C47.6498 31.4122 48.5978 30.6659 49.6615 30.1078C50.8758 29.4493 52.2434 29.1069 53.6326 29.1137C53.6758 29.1079 53.7197 29.1106 53.7617 29.1216C53.8037 29.1327 53.8431 29.1519 53.8774 29.1781C53.9116 29.2043 53.9402 29.237 53.9612 29.2741C53.9823 29.3113 53.9955 29.3523 54 29.3945V34.4664C54 34.6707 53.8702 34.7472 53.5824 34.7472C52.6364 34.7166 51.6902 34.8021 50.766 35.0017C50.0113 35.1534 49.2756 35.3841 48.5717 35.6899C48.0665 35.9124 47.6131 36.2332 47.2394 36.6326V49.6367C47.2394 49.8911 47.1353 49.9951 46.9002 49.9951H41.7571C41.709 50.003 41.6597 50.0013 41.6122 49.9901C41.5647 49.9788 41.5201 49.9583 41.481 49.9296C41.442 49.901 41.4093 49.865 41.385 49.8236C41.3606 49.7823 41.3452 49.7366 41.3396 49.6892V35.4712C41.3396 34.8595 41.3396 34.2227 41.3126 33.5596C41.2857 32.8964 41.2869 32.2345 41.2612 31.5714C41.2612 30.9848 41.2085 30.4244 41.1559 29.8378C41.1434 29.777 41.1556 29.7139 41.1898 29.6618C41.2241 29.6096 41.2778 29.5725 41.3396 29.5582C41.3396 29.5319 41.391 29.5319 41.4179 29.5582L41.4069 29.5558Z" fill="#9999FF"/>
</g>
</g>
<defs>
<filter id="filter0_b_121_2118" x="-7" y="-7" width="86" height="86" filterUnits="userSpaceOnUse" color-interpolation-filters="sRGB">
<feFlood flood-opacity="0" result="BackgroundImageFix"/>
<feGaussianBlur in="BackgroundImageFix" stdDeviation="3.5"/>
<feComposite in2="SourceAlpha" operator="in" result="effect1_backgroundBlur_121_2118"/>
<feBlend mode="normal" in="SourceGraphic" in2="effect1_backgroundBlur_121_2118" result="shape"/>
</filter>
<linearGradient id="paint0_linear_121_2118" x1="36" y1="0" x2="36" y2="68.7059" gradientUnits="userSpaceOnUse">
<stop stop-color="white" stop-opacity="0.47"/>
<stop offset="1" stop-color="white" stop-opacity="0.09"/>
</linearGradient>
<linearGradient id="paint1_linear_121_2118" x1="36" y1="0" x2="36" y2="68.7059" gradientUnits="userSpaceOnUse">
<stop stop-color="white" stop-opacity="0.25"/>
<stop offset="1" stop-color="white" stop-opacity="0.04"/>
</linearGradient>
</defs>
</svg>
