<svg width="72" height="72" viewBox="0 0 72 72" fill="none" xmlns="http://www.w3.org/2000/svg">
<g id="Icon">
<g id="BG" filter="url(#filter0_b_121_2058)">
<rect width="72" height="72" rx="10" fill="url(#paint0_linear_121_2058)" fill-opacity="0.3"/>
<rect x="0.5" y="0.5" width="71" height="71" rx="9.5" stroke="url(#paint1_linear_121_2058)"/>
</g>
<g id="Icon_2">
<path id="Vector" d="M24.3076 30.3219C23.8611 30.1195 23.4722 29.9624 23.1569 29.8425C23.09 29.3472 23.0415 28.8503 23.0112 28.352C22.9877 27.9473 23.0012 27.5412 23.0514 27.1389C23.3201 27.1831 23.7006 27.2495 24.175 27.3413C24.1262 27.9351 24.1262 28.532 24.175 29.1259C24.2073 29.5272 24.2515 29.9258 24.3076 30.3219ZM28.7312 32.9241C27.7404 32.1983 26.6992 31.5436 25.6153 30.9649C25.4284 29.8182 25.3481 28.6821 25.4188 27.6008C26.2728 27.7888 27.2813 28.0309 28.3918 28.3387C28.318 29.785 28.4543 31.3402 28.7326 32.9269L28.7312 32.9241ZM40.3491 33.5274C40.3384 33.6524 40.3236 33.7791 40.3102 33.9041C38.7645 34.7087 37.2266 35.7928 35.8447 37.2551C35.3982 37.7277 34.9894 38.2019 34.6167 38.6744C34.1986 38.1473 33.752 37.6147 33.2771 37.0764C33.0648 36.8367 32.8516 36.6037 32.6375 36.3772C32.282 34.0054 32.0559 31.6644 32.0144 29.4707C34.7655 30.4445 37.7354 31.7648 40.3487 33.5261L40.3491 33.5274Z" fill="#2AC64B"/>
<path id="Vector_2" d="M24.6446 25.0375C24.3976 25.785 24.2399 26.5589 24.1747 27.3432C23.7003 27.2514 23.3194 27.185 23.0508 27.1408C23.0813 26.8914 23.1254 26.6438 23.183 26.3992C23.6393 25.9134 24.1276 25.4585 24.6446 25.0375Z" fill="#008A5A"/>
<path id="Vector_3" d="M30.0278 22.0142C29.214 23.5015 28.5621 25.5066 28.3979 28.1815C28.3951 28.2335 28.3924 28.2866 28.3896 28.3383C27.2794 28.0301 26.2706 27.7888 25.417 27.6008C25.417 27.5665 25.4211 27.5302 25.4235 27.4939C25.5268 26.1496 25.9187 24.843 26.5729 23.6628C27.6622 22.9919 28.8204 22.4392 30.0278 22.0142Z" fill="#009550"/>
<path id="Vector_4" d="M40.3493 33.5285C37.7359 31.7679 34.766 30.4469 32.0149 29.4731C31.962 26.8603 32.1661 24.458 32.7084 22.4683C32.7232 22.4135 32.738 22.3591 32.7541 22.3057C34.9357 23.591 37.7788 25.024 40.4774 25.6537C40.7127 28.0255 40.6419 30.7212 40.3493 33.5289V33.5285Z" fill="#00983E"/>
<path id="Vector_5" d="M49.613 28.3532C49.5449 29.4596 49.3876 30.5589 49.1428 31.6402C48.8312 31.6522 48.473 31.6724 48.0752 31.7087C48.2533 30.8569 48.3782 29.9949 48.4493 29.1277C48.6859 26.1755 47.7279 23.9259 46.6215 22.3557C46.9461 22.4478 47.2535 22.5382 47.5407 22.6262C48.7845 24.1968 49.7439 26.2156 49.613 28.3532ZM46.8475 31.8505C45.8754 31.9892 44.9138 32.1934 43.9693 32.4616C44.206 30.9794 44.3087 29.5317 44.2259 28.1816C44.0377 25.1 43.2013 22.9121 42.2168 21.374C43.1422 21.5257 44.0202 21.7055 44.8298 21.8945C46.122 23.4154 47.0358 25.313 47.1999 27.4948C47.304 28.8839 47.1546 30.3672 46.8475 31.8505Z" fill="#009A37"/>
<path id="Vector_6" d="M40.4772 25.6538C37.7783 25.0241 34.9355 23.5911 32.7539 22.3058C32.8595 21.935 32.9884 21.5713 33.1397 21.2166C33.5393 21.1481 33.9515 21.0926 34.3763 21.0502C36.0807 20.8769 37.7827 20.893 39.4034 21.0259C39.6132 21.4923 39.7855 21.9747 39.9186 22.4684C40.1797 23.4398 40.3652 24.5084 40.4772 25.6538Z" fill="#00863F"/>
<path id="Vector_7" d="M28.8252 19.5914C28.7356 19.6462 25.8368 21.4257 24.6448 25.0356C24.128 25.4566 23.6399 25.9114 23.1836 26.397C23.9716 22.9915 27.118 20.2081 28.8252 19.5914ZM30.6595 20.9953C30.4296 21.3221 30.2187 21.6619 30.0278 22.0129C28.8206 22.4383 27.6624 22.991 26.5729 23.6615C27.3159 22.3029 28.3591 21.1459 29.5359 20.2283C29.8155 20.4265 30.1972 20.6902 30.6595 20.9953Z" fill="#06CBF6"/>
<path id="Vector_8" d="M47.541 22.6255C47.2538 22.5375 46.9464 22.4468 46.6218 22.355C45.3137 20.4988 43.7961 19.5901 43.7961 19.5901C44.8033 19.9527 46.3116 21.0713 47.541 22.6255ZM44.8301 21.8941C44.0201 21.7051 43.1425 21.5254 42.2171 21.3737C40.5562 18.7738 38.4705 18.036 38.3699 18.0014C40.6057 18.4475 43.0693 19.8219 44.8301 21.8941ZM39.4028 21.0258C37.7821 20.8926 36.0798 20.8769 34.3753 21.0501C33.9514 21.0926 33.5392 21.148 33.1387 21.2165C34.3358 18.4027 36.2838 18 36.2838 18H36.3388C36.3388 18 38.1995 18.3835 39.4021 21.0258H39.4028ZM34.2561 18.0014C34.1599 18.0356 32.2734 18.7019 30.6607 20.9967C30.1987 20.6916 29.8167 20.428 29.5371 20.2297C31.008 19.0844 32.6877 18.3143 34.2561 18.0017V18.0014Z" fill="url(#paint2_linear_121_2058)"/>
<path id="Vector_9" d="M36.3125 54.5143H38.3147L39.0553 51.2926H33.5703L34.3109 54.5143H36.3125Z" fill="white"/>
<path id="Vector_10" fill-rule="evenodd" clip-rule="evenodd" d="M28.7517 40.0928C29.1367 40.8868 29.5039 41.5953 29.8203 42.1866C30.3034 43.0989 30.8343 43.9852 31.4107 44.8419C31.5745 44.2689 31.7694 43.7051 31.9947 43.1532C31.5825 42.2092 31.1675 41.1953 30.7739 40.1401C29.9172 37.846 29.157 35.3499 28.7311 32.926C27.7407 32.1997 26.6998 31.5444 25.6162 30.9651C26.1452 34.2282 27.536 37.5878 28.753 40.0928H28.7517Z" fill="url(#paint3_linear_121_2058)"/>
<path id="Vector_11" fill-rule="evenodd" clip-rule="evenodd" d="M26.9423 40.0517C27.1605 40.431 27.3872 40.8132 27.6224 41.198C28.7216 42.9946 29.9925 44.6542 31.1213 46.0019C31.1556 45.8379 31.1938 45.6701 31.2367 45.4986C30.7791 44.8723 30.3333 44.2358 29.9496 43.6455C29.4 42.8015 28.6031 41.5777 27.7735 40.0712C26.3518 37.4878 24.8342 34.0733 24.308 30.3216C23.8614 30.1193 23.4729 29.9625 23.1572 29.8423C23.6117 33.2064 24.9019 36.5075 26.9423 40.0503V40.0517Z" fill="url(#paint4_linear_121_2058)"/>
<path id="Vector_12" fill-rule="evenodd" clip-rule="evenodd" d="M32.8377 37.6314C32.9806 38.4813 33.1468 39.3434 33.3278 40.1967C33.3454 40.2778 33.3622 40.3587 33.3801 40.4401C33.7582 39.8294 34.1709 39.2406 34.616 38.6764C34.1838 38.132 33.7373 37.5992 33.2763 37.0781C33.0645 36.8384 32.8513 36.6055 32.6367 36.3793C32.6992 36.796 32.7645 37.213 32.8356 37.6307L32.8377 37.6314Z" fill="url(#paint5_linear_121_2058)"/>
<path id="Vector_13" fill-rule="evenodd" clip-rule="evenodd" d="M48.0751 31.708C47.5657 34.1733 46.6685 36.4564 45.7149 38.4084C45.9076 38.6016 46.0959 38.7943 46.2779 38.9847C47.6375 36.4657 48.6034 34.0541 49.1427 31.6412C48.8311 31.6536 48.4729 31.6731 48.0751 31.708ZM43.9696 32.4613C43.7743 33.6623 43.5135 34.8519 43.1885 36.0247C43.7504 36.53 44.3653 37.096 44.9695 37.6767C45.7252 35.8781 46.4315 33.862 46.8474 31.8498C45.8754 31.9884 44.9139 32.1928 43.9696 32.4613Z" fill="#97CC1A"/>
<path id="Vector_14" fill-rule="evenodd" clip-rule="evenodd" d="M35.8442 37.2574C35.3977 37.7302 34.9889 38.2044 34.6162 38.6773C36.017 40.4389 37.2585 42.3208 38.326 44.3009C38.6444 43.0761 38.9742 41.7202 39.2693 40.3311C39.4606 39.4347 39.6368 38.5266 39.7876 37.6316C39.9989 36.3825 40.1751 35.1348 40.3101 33.9066C38.7647 34.7113 37.2258 35.7953 35.8442 37.2574ZM45.7154 38.4085C45.6786 38.4835 45.6422 38.5578 45.6055 38.6314C44.5265 40.8022 43.3919 42.545 42.6754 43.6455C41.8483 44.9151 40.7339 46.4029 39.8508 47.5414C39.8831 47.6252 39.9137 47.7037 39.9429 47.7783C41.3107 46.2933 43.3497 43.9003 45.0026 41.198C45.4173 40.5201 45.8054 39.8509 46.1667 39.1905C46.2045 39.1221 46.2417 39.0536 46.2784 38.9851C46.0963 38.7947 45.9081 38.602 45.7154 38.4088V38.4085ZM43.1889 36.0254L43.146 36.1805C42.0983 39.9527 40.501 43.6072 39.2387 46.1255C39.3761 46.4251 39.5008 46.7038 39.6104 46.9593C40.7783 45.5756 41.7383 44.1745 42.8049 42.1866C43.3909 41.0909 44.1504 39.6001 44.8745 37.9028L44.97 37.6775C44.3658 37.0954 43.7509 36.5308 43.1889 36.0254Z" fill="url(#paint6_linear_121_2058)"/>
<path id="Vector_15" fill-rule="evenodd" clip-rule="evenodd" d="M37.3652 49.4084C38.2178 48.5281 38.9474 47.7461 39.61 46.9592C39.5004 46.7038 39.3761 46.4251 39.2383 46.1255C38.3435 47.9104 37.6139 49.1246 37.3652 49.4084Z" fill="url(#paint7_linear_121_2058)"/>
<path id="Vector_16" fill-rule="evenodd" clip-rule="evenodd" d="M38.4121 49.3563C38.4575 49.3125 39.0617 48.7332 39.9431 47.7782C39.9139 47.7036 39.8833 47.6251 39.851 47.5413C39.0617 48.5602 38.4588 49.3005 38.4121 49.3563Z" fill="url(#paint8_linear_121_2058)"/>
<path id="Vector_17" fill-rule="evenodd" clip-rule="evenodd" d="M33.3789 40.4402C34.386 45.1373 35.7673 49.4454 35.7673 49.4454H36.8565C36.8565 49.4454 37.5579 47.2571 38.326 44.3004C37.2582 42.3202 36.0166 40.4382 34.6155 38.6765C34.1702 39.2406 33.7573 39.8295 33.3789 40.4402Z" fill="url(#paint9_linear_121_2058)"/>
<path id="Vector_18" fill-rule="evenodd" clip-rule="evenodd" d="M31.4102 44.8418C32.5094 46.472 33.6718 47.768 35.2594 49.4084C34.8891 48.9862 33.4567 46.5052 31.9962 43.1531C31.771 43.705 31.576 44.2688 31.4122 44.8418H31.4102Z" fill="url(#paint10_linear_121_2058)"/>
<path id="Vector_19" fill-rule="evenodd" clip-rule="evenodd" d="M31.1205 46.0019C32.7827 47.9848 34.1433 49.289 34.212 49.3575C34.1388 49.2671 32.6384 47.4291 31.2346 45.4996C31.1916 45.6708 31.1525 45.839 31.1191 46.003L31.1205 46.0019Z" fill="url(#paint11_linear_121_2058)"/>
</g>
</g>
<defs>
<filter id="filter0_b_121_2058" x="-7" y="-7" width="86" height="86" filterUnits="userSpaceOnUse" color-interpolation-filters="sRGB">
<feFlood flood-opacity="0" result="BackgroundImageFix"/>
<feGaussianBlur in="BackgroundImageFix" stdDeviation="3.5"/>
<feComposite in2="SourceAlpha" operator="in" result="effect1_backgroundBlur_121_2058"/>
<feBlend mode="normal" in="SourceGraphic" in2="effect1_backgroundBlur_121_2058" result="shape"/>
</filter>
<linearGradient id="paint0_linear_121_2058" x1="36" y1="0" x2="36" y2="68.7059" gradientUnits="userSpaceOnUse">
<stop stop-color="white" stop-opacity="0.47"/>
<stop offset="1" stop-color="white" stop-opacity="0.09"/>
</linearGradient>
<linearGradient id="paint1_linear_121_2058" x1="36" y1="0" x2="36" y2="68.7059" gradientUnits="userSpaceOnUse">
<stop stop-color="white" stop-opacity="0.25"/>
<stop offset="1" stop-color="white" stop-opacity="0.04"/>
</linearGradient>
<linearGradient id="paint2_linear_121_2058" x1="35.9619" y1="22.5092" x2="51.9099" y2="22.994" gradientUnits="userSpaceOnUse">
<stop stop-color="#0288F7"/>
<stop offset="1" stop-color="#2EE2BD"/>
</linearGradient>
<linearGradient id="paint3_linear_121_2058" x1="37.1832" y1="45.9415" x2="33.2818" y2="36.2628" gradientUnits="userSpaceOnUse">
<stop stop-color="#CB1918"/>
<stop offset="0.39" stop-color="#A2183D"/>
<stop offset="0.75" stop-color="#902869"/>
<stop offset="1" stop-color="#73358A"/>
</linearGradient>
<linearGradient id="paint4_linear_121_2058" x1="35.2005" y1="46.7405" x2="31.299" y2="37.0618" gradientUnits="userSpaceOnUse">
<stop stop-color="#CB1918"/>
<stop offset="0.39" stop-color="#A2183D"/>
<stop offset="0.75" stop-color="#902869"/>
<stop offset="1" stop-color="#73358A"/>
</linearGradient>
<linearGradient id="paint5_linear_121_2058" x1="40.6475" y1="44.5449" x2="36.746" y2="34.8662" gradientUnits="userSpaceOnUse">
<stop stop-color="#CB1918"/>
<stop offset="0.39" stop-color="#A2183D"/>
<stop offset="0.75" stop-color="#902869"/>
<stop offset="1" stop-color="#73358A"/>
</linearGradient>
<linearGradient id="paint6_linear_121_2058" x1="48.7087" y1="39.0716" x2="43.0357" y2="45.2882" gradientUnits="userSpaceOnUse">
<stop stop-color="#ADD816"/>
<stop offset="1" stop-color="#DBD704"/>
</linearGradient>
<linearGradient id="paint7_linear_121_2058" x1="44.4033" y1="50.981" x2="39.5802" y2="42.8212" gradientUnits="userSpaceOnUse">
<stop stop-color="#E1282B"/>
<stop offset="0.39" stop-color="#E3402A"/>
<stop offset="0.7" stop-color="#E76226"/>
<stop offset="1" stop-color="#F19A0A"/>
</linearGradient>
<linearGradient id="paint8_linear_121_2058" x1="44.7135" y1="50.7979" x2="39.8905" y2="42.6381" gradientUnits="userSpaceOnUse">
<stop stop-color="#E1282B"/>
<stop offset="0.39" stop-color="#E3402A"/>
<stop offset="0.7" stop-color="#E76226"/>
<stop offset="1" stop-color="#F19A0A"/>
</linearGradient>
<linearGradient id="paint9_linear_121_2058" x1="43.8897" y1="51.2849" x2="39.0666" y2="43.1251" gradientUnits="userSpaceOnUse">
<stop stop-color="#E1282B"/>
<stop offset="0.39" stop-color="#E3402A"/>
<stop offset="0.7" stop-color="#E76226"/>
<stop offset="1" stop-color="#F19A0A"/>
</linearGradient>
<linearGradient id="paint10_linear_121_2058" x1="41.2184" y1="52.8639" x2="36.3952" y2="44.7041" gradientUnits="userSpaceOnUse">
<stop stop-color="#E1282B"/>
<stop offset="0.39" stop-color="#E3402A"/>
<stop offset="0.7" stop-color="#E76226"/>
<stop offset="1" stop-color="#F19A0A"/>
</linearGradient>
<linearGradient id="paint11_linear_121_2058" x1="40.3219" y1="53.3934" x2="35.4988" y2="45.2335" gradientUnits="userSpaceOnUse">
<stop stop-color="#E1282B"/>
<stop offset="0.39" stop-color="#E3402A"/>
<stop offset="0.7" stop-color="#E76226"/>
<stop offset="1" stop-color="#F19A0A"/>
</linearGradient>
</defs>
</svg>
