<svg width="10" height="10" viewBox="0 0 10 10" fill="none" xmlns="http://www.w3.org/2000/svg">
<g id="Group">
<path id="Layer 2" d="M5 0C4.01109 0 3.0444 0.293245 2.22215 0.842651C1.3999 1.39206 0.759042 2.17295 0.380604 3.08658C0.00216644 4.00021 -0.0968502 5.00554 0.0960758 5.97545C0.289002 6.94535 0.765205 7.83627 1.46447 8.53553C2.16373 9.23479 3.05464 9.71099 4.02455 9.90392C4.99445 10.0968 5.99979 9.99783 6.91342 9.61939C7.82705 9.24095 8.60794 8.60009 9.15735 7.77785C9.70675 6.9556 10 5.9889 10 5C9.99843 3.6744 9.47115 2.40354 8.5338 1.46619C7.59646 0.52885 6.3256 0.00156385 5 0ZM6.685 6.685C6.59976 6.77021 6.48416 6.81808 6.36364 6.81808C6.24311 6.81808 6.12751 6.77021 6.04227 6.685L4.67864 5.32136C4.59339 5.23614 4.54548 5.12054 4.54545 5V2.27273C4.54545 2.15217 4.59334 2.03656 4.67859 1.95131C4.76383 1.86607 4.87945 1.81818 5 1.81818C5.12055 1.81818 5.23617 1.86607 5.32141 1.95131C5.40665 2.03656 5.45454 2.15217 5.45454 2.27273V4.81182L6.685 6.04227C6.77021 6.12751 6.81808 6.2431 6.81808 6.36363C6.81808 6.48416 6.77021 6.59976 6.685 6.685Z" fill="white"/>
</g>
</svg>
